<svg version="1.0" xmlns="http://www.w3.org/2000/svg" width="381.333" height="381.333" viewBox="0 0 286 286"><path d="M0 143v143h131l-.2-35.2-.3-35.2-15.3-11.9-15.3-11.9-11.2 2.7c-6.2 1.5-11.9 3.1-12.7 3.6-.9.4-3.1 4.1-4.9 8.3l-3.3 7.5 2.9 5.3c2.4 4.5 3.3 5.4 6.4 5.9 2.6.4 4.2.1 5.8-1.3 2.9-2.3 2.4-5.4-.8-5-1.9.3-2.2 0-1.9-2 .2-1.3 1-2.3 1.8-2.3s1.4.6 1.2 1.3c-.1.6.5 1.2 1.3 1.2 1.8 0 2-1.7.3-2.2-.6-.2-.8-1-.4-1.6.9-1.5 4.7-.6 5.9 1.4.4.8 1.7 1.4 2.7 1.4 2.6 0 2.6 2.6 0 3.3-1.3.3-2.5-.2-3.4-1.5-1.8-2.5-3.6-1.6-3.6 1.8 0 2.6.7 2.9 3 1.4.9-.6 1.9-.5 2.8.2 1 .9 1.6.8 2.3-.3.7-1.2.9-1.2.9.1 0 1.2.2 1.2.9.2.5-.9.8-.3.9 1.7 0 1.6-.6 3.5-1.3 4.1-1.8 1.5-5.5.3-5.5-1.6 0-1.1.6-1.3 2-.9 1.1.4 2 .2 2-.4 0-2.2-6.6-1.2-8.9 1.3l-2.2 2.4 2.1 1.5c2.3 1.6 4.9 1.2 6.2-.7.5-.7.8-.7.8.1 0 .7.7 1.3 1.5 1.3s1.5-.5 1.5-1.1c0-2.3 2.5-.1 2.7 2.4.1 1.9-.3 2.7-1.4 2.7-1.1 0-1.4.7-1.1 2.5.7 3.2-.8 4.2-3.1 2.1-2.2-2-3.1-2-3.1-.1 0 .8.7 1.5 1.5 1.5 2.8 0 1.5 2.8-1.5 3.5-2.3.5-3 1.2-3 3.1 0 2.7-2.4 3.3-3.4.9-.3-.8-1-1.5-1.6-1.5-1.6 0-1.2 2.2.8 3.6 1.6 1.1 1.5 1.3-1.1 2.3-2.9 1.1-6.7 0-6.7-1.9 0-1.8-3-1-3.1.7 0 1.1-.4.7-.9-.9-1.3-4.4-1.9-4.9-4.1-3.8-2.4 1.3-2.4 2.5-.1 4.8 1.1 1.1 2.9 1.7 5 1.5 3.9-.3 4.2 1.4.5 2.8-2.2.8-3 .7-3.9-.6-.8-1.1-2-1.4-3.8-.9-2 .5-2.6.2-2.6-1 0-.9.5-1.6 1-1.6.6 0 1-.5 1-1 0-.6-.7-1-1.5-1s-1.5.4-1.5 1c0 .5-.5 1-1.1 1-1.4 0-3.9-2.5-3.9-3.9 0-.6-.9-1.1-2-1.1s-2 .7-2 1.5.7 1.5 1.5 1.5 1.5.7 1.5 1.6c0 1-.6 1.4-1.4 1.1-.7-.3-1.8-.1-2.4.5-.8.8-1.3.7-1.8-.6-.5-1.3-1.3-1.6-3.5-1.1-2.3.5-2.9.3-2.9-1 0-1 .5-1.5 1.3-1.2 1 .4 1.3-.2.9-1.8-.4-2.5-3.8-4-4.9-2.3-.3.7-.1.8.5.4.8-.5 1.2 0 1.2 1.3 0 3-2.3 2.6-3.8-.7-1-2.3-1-2.9.3-3.8 1.7-1.3 1.9-4.2.5-6.4-.7-1.2-1.3-1.2-2.7-.4-2.3 1.4-2.9 4.4-.9 4.4 2.7 0 2.8 2 0 3-2 .8-3 .8-3.8-.1-.8-.8-.8-1.3.1-1.6 1.9-.7 1.6-4.3-.3-4.3-1 0-1.4.6-1.1 1.5.8 1.9-1.2 3-2.6 1.6-.9-.9-.7-1.1.8-.6 1.5.4 1.4.3-.3-.6-1.8-1-2.2-1.8-1.7-3.8.4-1.4 1.1-2.8 1.6-2.9 1.5-.6 1-4.2-.6-4.2-.8 0-1.5.9-1.5 2 0 2.5-2.5 2.7-3.4.2-.3-.9-.9-2.3-1.2-3-.4-1 .4-1.1 3.8-.6 2.3.4 4 .3 3.5-.1-.4-.5 0-1.6.9-2.6 2.3-2.5-.1-3.4-2.6-.9-1.1 1.1-2.3 2-2.7 2-1.3 0-3.2-5-2.8-7.2.4-1.9.3-2-1.4-.4-2.1 1.9-4.2.3-2.2-1.7 1.6-1.6 1.4-3.7-.4-3.7-.9 0-1.5.9-1.5 2.1 0 1.2-.5 1.9-1.2 1.6-.8-.2-1.2-1.7-1-3.3.2-2.2 0-2.6-.8-1.4-.8 1.3-1 1.3-1-.1 0-.8.7-2.4 1.5-3.5 2-2.6 1.9-4.4-.4-4.4-1 0-1.8.6-1.7 1.2 0 .7-.3 1.3-.9 1.3-.5 0-.9-.6-.9-1.3.1-.6-.4-1.2-1.2-1.2-1.7 0-1.8-1.6-.2-2.6.6-.4 1.4-.2 1.6.4.6 1.8 3.7 1.5 6.2-.6l2.2-1.7-2.1-1.9c-2.1-1.9-4.1-1.4-4.1 1 0 .8-.6 1.4-1.2 1.4-1.6 0-3.9-4.8-2.7-5.6 1.2-.7 3.1.5 2.4 1.7-.3.5.1.6.9.3 2-.8 2.1-4.4.1-4.4-2.1 0-1.9-1.7.5-4.2 1.1-1.2 2-2.8 2-3.5 0-2.1-2.7-1.5-3.3.8-.3 1.2-1 1.8-1.7 1.4-.6-.4-.9-1.3-.6-2 .2-.7-.2-1.6-1.1-2-1.3-.4-1.4-.8-.5-1.7.9-.9 1.5-.9 2.4 0 1.6 1.6 3.4 1.5 6.4-.5l2.6-1.7-2.3-1.7c-2.5-1.8-4.9-1.5-4.9.7 0 .8-.7 1.4-1.6 1.4-1 0-1.4-.6-1.1-1.4.3-.8-.1-1.7-1-2.1-1.2-.4-1.3-.9-.5-1.7.8-.8 1.5-.8 2.5.1 1.9 1.5 4.7.4 4-1.5-.3-.9-1.2-1.3-1.9-1-1.6.6-2.8-1-1.9-2.4.5-.8 1.1-.8 2 0 1.1.9 1.2.7.8-.9-.4-1.5-.1-2.1 1-2.1.9 0 1.9.4 2.2 1 1 1.7 5.1 1.1 6.9-.9 1.7-1.9 1.7-2-.3-3-3.1-1.7-5.1-1.3-5.1.9 0 2.9-1.9 2.5-3.1-.7-1-2.7.2-5.5 1.5-3.4.8 1.2 4.6 1.5 4.6.3 0-1.3-1.5-2.7-2.9-2.7-.8 0-1.6-.6-1.9-1.4-.3-1 .1-1.2 1.7-.8 1.1.3 2.4 0 2.8-.5.3-.7.1-.8-.5-.4-.7.4-1.2.2-1.2-.5 0-.8 1.6-.9 5.7-.4 5.1.6 5.5.5 4-.9-.8-.9-2-1.6-2.6-1.6-.6 0-1.1-.7-1.1-1.6 0-1 .6-1.4 1.5-1 2 .7 1.9 0-.6-3.6-1.7-2.3-1.9-3.2-.9-4.1 1-.9 1.4-.9 1.7 0 .6 1.7 4.3 1.6 6.7-.2 1.9-1.4 1.9-1.6.2-3.4-1.9-2.1-4.6-1.8-4.6.5s-2.4 1.6-3.7-1.1c-1.3-2.9 0-4.3 2.2-2.5 2 1.6 4.6.5 3.9-1.5-.4-.9-1.3-1.4-2-1.1-1.6.6-2.8-1-1.9-2.4.5-.8 1.1-.8 2 0 1.1.9 1.2.7.8-.9-.6-2.4 1-2.8 2.9-.8 1.4 1.6 4.5 1.1 7-1.1 1.7-1.4 1.7-1.6 0-2.8-2.6-2-5.2-1.7-5.2.6 0 2.9-1.9 2.5-3.1-.7-1-2.7.2-5.5 1.5-3.4.8 1.2 4.6 1.5 4.6.3 0-1.3-1.5-2.7-2.9-2.7-.8 0-1.6-.6-1.9-1.4-.3-1 .1-1.2 1.6-.9 1.5.4 1.9.2 1.5-.9-.4-1.1.2-1.4 2.8-1.1 1.9.2 3.3.8 3.2 1.4-.2.9.4.9 2.1.1 2.7-1.3 2.3-3.7-.5-3.7-1 0-1.9-.7-1.9-1.5s.3-1.5.8-1.5c1.3.1 4.2 2.7 4.2 3.8 0 2 4.2 4.3 5.7 3 1.4-1.1 1.8-4.2.4-3.4-.4.3-1.6-.3-2.6-1.4-1.7-1.9-1.7-2 1.5-3.4 2.1-.9 2.8-1.5 1.9-1.9-1-.4-1.1-.6-.1-.6.7-.1 1.5.6 1.8 1.4.8 1.9 2.1 1.9 2.1 0 0-.8-.4-1.2-.8-1-1 .7-2-3.8-1-4.8.5-.5 1.2-.4 1.5.2.4.6 1.6 1.1 2.8 1.1 1.4 0 1.8-.5 1.4-1.6-.3-.9-.6-1.7-.6-1.9 0-.2-.9-.1-2 .2-1.4.4-2 0-2-1.2s.6-1.6 2-1.2c1.1.3 1.8.1 1.4-.4-.3-.5-.3-1.3 0-1.8.8-1.3 6.2.4 5.8 1.8-.1.8.4.8 1.8-.1 2.6-1.6 2.6-3.8 0-3.8-1.1 0-2-.7-2-1.5 0-2.6 1.6-1.7 5.5 3.1 3.6 4.4 3.8 4.5 5.2 2.4 1.9-2.6 1.3-5.5-1.1-5.5-1.1 0-2.1-.6-2.4-1.4-.3-1 .1-1.2 1.5-.9 1.4.4 2 .1 1.9-1 0-.8.5-1.7 1.3-2 1-.3 1.2.3.6 2.7-.6 2.7-.4 3.1 1.4 3.1 1.4 0 2.1-.6 2.1-2 0-2 2.5-2.8 3.2-1 .2.5 1.8 1.2 3.6 1.6 2.5.5 3.2.3 3.2-.9 0-.9-.9-1.7-2-1.9-2.2-.3-2.4-2.4-.2-2.2.6.1 1.2-.4 1.2-1.2 0-.8.7-1.4 1.5-1.4 1.7 0 2 1.6.5 2.5-1.6 1-1.2 2.1 1.6 5.5 2.6 3 2.7 3.1 4.1 1 1.7-2.3.9-6.1-1.2-5.4-1.5.6-2.9-1.2-2-2.6.5-.8 1.1-.8 2 0 1 .8 1.3.7 1.1-.6 0-.9.5-1.9 1.3-2.2 1-.3 1.2.2.7 2.2-.3 1.4-.2 3.4.3 4.4.6 1.2.5 2.5-.5 4.2-1.7 3.3-1.8 6 0 6 .9 0 1.2-.7.9-1.9-.3-1.3.2-2 2-2.3 2.2-.4 2.4-.2 2 2.9-.2 2.4.1 3.3 1.1 3.3 2.3 0 2.8-1.7 1.1-3.3-1.6-1.7-2-3.2-.6-2.3.4.3.5-.9.2-2.6-.4-1.7-1.2-3.3-1.9-3.4-.7-.1-.8 0-.2.3 1.3.6 1.3 3.3 0 3.3-.5 0-1.4-.9-2-1.9-.9-1.7-.5-2.1 2.6-3.1 4.2-1.4 5-.9 3.4 1.9-.8 1.5-.8 2.1 0 2.1.6 0 1 .8.8 1.7-.3 2.4 1 4.3 3 4.3 1.2 0 1.3-.3.4-1.2-1.7-1.7-1.5-3.8.3-3.8.8 0 1.5-.5 1.5-1.1 0-.6-.7-.9-1.5-.6-1.7.7-2.9-.8-2-2.3.5-.8 1.1-.8 2 0 1.1.9 1.2.7.8-.9-.5-2-.2-2.1 4.6-1.6 4 .4 5.1.2 5.1-.9 0-.8-.9-1.6-2-1.8-3.1-.5-2.9-2.2.3-2.5 1.6-.1 2.5.2 2.1.8-1.5 2.4 4.5 8.1 9.9 9.3 2.6.6 2.7.5 2.7-3.2 0-2.6-.7-4.5-2-5.7-2.1-1.9-5-1.4-5 1 0 .8-.7 1.5-1.6 1.5-.9 0-1.4-.6-1.1-1.3.2-.6-.8-2-2.2-2.9l-2.6-1.8h2.5c1.5 0 3.1.5 3.6 1 1.5 1.5 4.4.2 3.7-1.6-.3-.9-1.2-1.3-1.9-1-1.6.6-2.8-1-1.9-2.4.5-.8 1.1-.8 2 0 1.1.9 1.2.7.8-.9-.4-1.5-.1-2.1 1.2-2.1s1.5.6 1 2.8c-.4 2 0 3.6 1.5 5.5 2.6 3.3 3.4 3.4 4.8.3.9-2.1.8-2.9-.9-4.8-1.1-1.3-1.8-1.7-1.4-1.1.3.7.1 1.3-.4 1.3-.6 0-1.1-.7-1.1-1.5s.7-1.5 1.5-1.5 1.5-.5 1.5-1c0-.6.7-1 1.5-1 1.7 0 2 1.6.5 2.5-1.4.9-.2 3.1 1.9 3.1 1.2 0 1.7-.6 1.4-1.7-.5-1.9 1.6-3.7 2.6-2.2.3.5 1.4 1.2 2.4 1.6 1 .4 1.5 1.1 1.2 1.7-.4.6.4.6 1.9-.1 2.8-1.3 2.5-3.9-.5-3.9-2.1 0-2.5-1.5-.7-2.6.6-.4.8-.3.5.3-.3.5 0 1 .7 1 .8 0 1.1-.8.8-1.9-.3-1.2.1-1.8 1.2-1.8 1.4 0 1.6.6 1.1 3.3-.5 2.6-.2 3.7 1.8 5.5l2.5 2.3 1.5-2.2c1.9-2.6.6-6.2-1.8-5.3-.9.4-1.5 0-1.5-1 0-.9.7-1.6 1.5-1.6s1.5-.5 1.5-1c0-.6.7-1 1.5-1 1.6 0 2 1.6.6 2.4-1.1.7-.2 4.6 1 4.6.5 0 0 1.5-1.1 3.2-2.6 4.2-2.6 10.8 0 15.7 1 2.1 1.6 4.2 1.2 4.6-.4.4.5.1 2.1-.6 3-1.4 3.6-2.8 1.1-2.5-.9 0-1.9-.5-2.2-1.3-.3-1 .1-1.3 1.5-.9 1.5.4 2 .1 1.9-1.1-.1-1.2.6-1.5 2.7-1.3 2.5.3 2.7.1 2.7-3.2 0-2.5-.6-3.8-2-4.6-2.3-1.2-4-.6-4 1.6 0 2.4-2.4 1.6-3.7-1.3-1.4-3-1.1-3.8 1.2-2.9.9.3 1.3 1.1 1 1.7-.4.6.2.5 1.4-.3 2.6-1.6 2.7-3.8.2-3.8-1.8 0-3.5-3.3-2.3-4.5.4-.4.7-1.4.7-2.2 0-.9.6-1.8 1.4-2.1 1-.3 1.2.1.9 1.5-.4 1.6-.1 1.9 1.3 1.6 1.4-.4 1.9 0 1.9 1.6 0 1.2-.6 2.1-1.5 2.1-.8 0-1.5-.5-1.5-1 0-.6-.5-1-1.1-1-.6 0 .8 2.3 3.2 5.1 4 4.8 4.4 5 5.6 3.3 1.9-2.6 1.3-5.9-1.1-5.9-1.1 0-2.1-.6-2.4-1.4-.3-1 .1-1.2 1.5-.9 1.3.4 2 .1 1.9-.8 0-.7.4-1.3.9-1.3.6 0 1 .9 1.1 2.2.1 4.6.2 4.7 3.9 3.1 4.1-1.7 5.5-1.8 5.5-.3 0 .5-.6.7-1.2.3-1-.6-1-.4 0 .8.7.9 1 2.7.7 4-.4 1.4 0 3.1 1 4.3.8 1.1 1.4 1.5 1.4 1-.5-2.3 1.4-6.5 2.8-6.5.9 0 1.3.6 1 1.4-.7 1.7 2.3 4.6 4.6 4.6.9 0 1.7-.6 1.7-1.4 0-2.1-1.9-3-2.6-1.2-.5 1.2-.9 1.3-1.9.3-1.6-1.5.1-4.1 2.2-3.3.7.3 1.3-.1 1.3-.9s.4-1.5.9-1.5c1.5 0 2.3 1.8 1.1 2.5-1.6 1-1.2 2.1 1.7 5.5l2.6 3.2 1.4-2.5c1.5-2.9.8-5.8-1.2-5.1-1.6.6-2.9-1.2-2-2.6.5-.8 1.1-.8 2 0 1 .8 1.3.7 1.1-.6 0-.9.5-1.9 1.3-2.2 1-.3 1.2.3.7 2.4-.3 1.6-.2 3.5.3 4.3.6 1 .5 2.4-.3 4-2.6 5.1-2.8 9.6-.6 14.7 1.2 2.7 2.3 5 2.5 5.3.2.2 2.5-1 5-2.5 4-2.6 4.5-3.3 4.5-6.5 0-2.2-.7-4.2-1.8-5.2-2.6-2.3-5.2-2.2-5.2.3 0 2.9-1.9 2.5-3.1-.7-1-2.7.2-5.5 1.5-3.4.4.6 1.6 1.1 2.8 1.1 1.4 0 1.8-.5 1.4-1.6-.3-.9-.6-1.7-.6-2 0-.2-.6-.1-1.4.2-1.7.7-4.1-3.2-2.6-4.1.5-.3 1-1.5 1-2.6 0-1 .7-1.9 1.5-1.9 1.8 0 1.9 1.2.3 2.9-1.1 1-.7 1.1 1.6.5 2.6-.6 2.8-.5 2.2 1.2-1.8 4.2-1.7 5.3.3 7.3 2.6 2.6 3.7 2.6 5.1.2 1.2-2.4.2-5.4-1.6-4.7-1.6.6-2.8-1-1.9-2.4.5-.8 1.1-.8 2 0 1.1.9 1.2.7.8-.9-.4-1.5-.1-2.1 1.1-2.1 1.4 0 1.6.6 1 3.6-.6 3.2-.4 3.6 1.2 3.2 1.3-.3 1.8-1.1 1.7-2.6-.2-1.5.3-2.2 1.3-2.2 1.2 0 1.5.6 1.1 2.1-.4 1.6-.3 1.8.9.8 1.1-.9 1.6-.6 2.4 1.6 1 2.7.6 4.5-1.1 4.5-.5 0-.9-.9-.9-2.1 0-3.2-4-2-6.7 2-2.7 3.9-3.1 10.1-.8 10.1.8 0 1.5-.5 1.5-1 0-.6.7-1 1.5-1s1.5.5 1.5 1.1c0 .5.4.8.9.5.5-.4 1.1-.3 1.4.1.2.5.2.3.1-.4-.2-.7.1-1.5.6-1.8.6-.4 1-1.7 1-3.1 0-1.7-.5-2.4-2-2.4-1.1 0-2-.7-2-1.5 0-2.2 1.6-1.8 3.8 1 2.2 2.7 5.3 2.5 4.9-.3-.1-1 .3-1.7.8-1.7.6 0 .9.5.9 1.1-.1.6.7.9 1.7.7 1.3-.4 1.9 0 1.9 1.2 0 1.3-.6 1.6-2.2 1.2-2.4-.6-6.3 1.5-5.1 2.6.3.4.2.7-.4.7-.6 0-1.4.7-1.7 1.6-.5 1.4-.4 1.5.8.5 1.1-.9 1.4-.8 1.2.6 0 .9.7 1.9 1.7 2.1 1.1.2 1.7-.3 1.7-1.5 0-2 1.8-4.3 3.3-4.3.5 0 .7.8.4 1.9-.3 1.4 0 1.7 1.4 1.4 2.1-.6 2.7 2.1.8 3.2-.6.4-.8 1.3-.5 2 .3.8.2 1.6-.2 1.8-.4.2-.1.2.6.1 1.6-.4 1.6 1.3 0 1.9-1 .3-1 .7.1 2 1.8 2.2 3.8 2.1 5.1-.2 1.2-2.4.2-5.4-1.6-4.7-1.6.6-2.8-1-1.9-2.4.5-.8 1.1-.8 1.9-.1 1.4 1.1 2.6.5 2.6-1.3 0-.6-.5-.4-1.1.4-.7 1-.9 1.1-.7.2.5-2.1 2.3-.9 2 1.3-.1 1 0 2.6.3 3.3.8 2.2 3.7-.6 3-2.9-.5-1.4-.1-1.9 1-1.9 1.2 0 1.6.6 1.2 1.9-.3 1.4 0 1.7 1.3 1.4 1.2-.3 1.9.3 2.3 1.9 1 3.4.9 3.8-.8 3.8-.8 0-1.5-.9-1.5-2 0-2.2-1.2-2.5-4.2-.9-2.3 1.3-4.8 6.7-4.8 10.7 0 2.6.2 2.8 3.8 2.4 4.1-.4 6.2-2.4 6.2-5.9 0-1.6-.6-2.3-2-2.3-1.1 0-2-.7-2-1.5 0-2.3 1.6-1.8 3.9 1.1 2.4 3 5.6 2.7 4.6-.5-.6-2 .9-3.8 1.9-2.3.9 1.5-.6 5.1-2.3 5.7-2.5.7-5 5.7-3.3 6.2.6.3 1 .9.7 1.3-.3.5.9.5 2.7-.1 1.8-.5 3.4-.9 3.5-.9.2 0 .2-1 0-2.1-.1-1.2.4-2.4 1.2-2.7 1-.3 1.2.1.9 1.6-.4 1.3 0 2.3.9 2.6.8.3 1.1.1.8-.4-.3-.6-.1-1 .4-1 .6 0 1.1.7 1.1 1.5 0 1.1-.8 1.5-2.2 1.3-2.4-.3-2.8.1-2.8 2.7 0 1.1.7 1.4 2.5.9 1.9-.5 2.5-.2 2.5 1 0 .9-.5 1.6-1.1 1.6-.6 0-.8.9-.4 2s.2 2-.4 2c-1.3 0-1.4 1-.3 2.8 1.4 2.1 4.4.3 3.7-2.2-.5-1.5-.4-1.7.3-.7.8 1.1 1 1.1 1.5 0 .4-1.1.6-1.1.6-.1.1.7-1 2.4-2.4 3.8s-3.2 3.6-4.1 4.8c-1.4 2.2-1.3 2.4 1.1 3 3.9 1 6.5-.1 6.2-2.6-.1-1.1.4-2.3 1.2-2.6 1-.3 1.2.1.8 1.7-.4 1.8-.2 2.1 1.4 1.6 1.4-.5 1.9-.2 1.9 1 0 1.3-.6 1.6-2.2 1.2-1.3-.3-3.1 0-4.1.7-1.4 1.1-1.5 1.5-.3 2.5.7.6 2.3 1 3.4.9 1.1-.2 2.1.1 2.1.7.1 1.2-4.1 1.3-5 .2-.3-.5-.9.1-1.2 1.2-.4 1.7-.2 1.9 1.3 1.1 1.9-1 3-.4 3 1.7 0 1-.9 1.2-3.4.8-2.9-.6-3.6-.3-6 2.7l-2.6 3.3 2.8 1.2c3.5 1.4 6.6 0 5.7-2.8-.5-1.4-.2-1.9 1-1.9 1.3 0 1.6.6 1.2 2.1-.4 1.6-.3 1.8.8.9.9-.8 1.5-.8 2 0 1 1.7-.3 2.8-2.9 2.3-3-.6-4.3 1.4-2.3 3.5 1.3 1.2 1.9 1.3 3.1.3 1-.8 1.6-.9 2.1-.1 1 1.6-.4 3-2.2 2.3-1.1-.4-1.4-.3-.9.5.4.7.2 1.2-.6 1.2-1 0-.9.3.2 1.1 1.3.9 1.2 1-.2.5-1-.3-1.8-.1-1.8.4 0 .6-.7 1-1.6 1-.9 0-1.4-.6-1.1-1.3.2-.6.9-1.2 1.5-1.2 2.2 0 2.5-1.6.6-3.6-2.8-3.2-6.6-4.5-11.7-4.1l-4.4.4 1 4c.8 3.1 1.7 4.3 4 5.3 3.7 1.6 7 .1 6.1-2.7-.3-1.2 0-1.8 1-1.8 2.3 0 2 1.7-.8 4.5-2 2-2.2 2.6-1 3.6.8.6 1.4 1.6 1.4 2.2 0 .6-1 .1-2.2-1.1-1.3-1.1-3.5-2.5-5-3.1-2.7-1-2.8-1-2.8 2.5 0 2.2.9 4.7 2.5 6.8 1.4 1.8 2.2 3.6 1.8 3.9-1.3 1.4-2.3.6-2.3-1.7 0-1.3-.7-2.9-1.6-3.6-1.2-1.1-1.8-1.1-3 .2-1.3 1.3-1.4 1.9-.3 3.6 1.4 2.3.8 3.8-1.1 2.7-.6-.4-.9-1.3-.6-2.1.6-1.6-1-1.9-1.9-.4-.9 1.5-2.5 1.2-2.5-.5 0-.8.8-1.5 1.9-1.5 1 0 2.5-1 3.4-2.3 4.2-6.4 2.4-14.4-5.1-22-3.9-3.9-6-5.1-12.7-7.2l-8.1-2.6-12 1.9-11.9 1.8-13.5 10-13.5 9.9-10.5 21-10.5 21 .3 37.7.2 37.8h130V0H0v143zm182.8-75.2c.2.7-.3 1.2-1.2 1.2-.9 0-1.6-.7-1.6-1.6 0-1.7 2.2-1.4 2.8.4zm-78 12.4c-.6 1.8-2.8 2.1-2.8.4 0-.9.7-1.6 1.6-1.6.9 0 1.4.5 1.2 1.2zm-35 5c-.6 1.8-2.8 2.1-2.8.4 0-.9.7-1.6 1.6-1.6.9 0 1.4.5 1.2 1.2zM46 105.5c0 .8-.7 1.5-1.5 1.5s-1.5-.7-1.5-1.5.7-1.5 1.5-1.5 1.5.7 1.5 1.5zm220 3c0 .8-.7 1.5-1.5 1.5-1.6 0-2-1.2-.8-2.3 1.1-1.2 2.3-.8 2.3.8zM49.5 112c.3.6-.1.7-.9.4-1.8-.7-2.1-1.4-.7-1.4.6 0 1.3.4 1.6 1zM276 131.3c0 .7-.4.6-1-.3-.8-1.2-1-1.2-1-.1 0 .8-.3 1.2-.6.8-.9-.9.6-2.8 1.7-2.2.5.4.9 1.2.9 1.8zm-5 41.2c0 .8-.7 1.5-1.5 1.5-1.6 0-2-1.2-.8-2.3 1.1-1.2 2.3-.8 2.3.8zm-2 4c0 .8-.7 1.5-1.5 1.5s-1.5-.7-1.5-1.5.7-1.5 1.5-1.5 1.5.7 1.5 1.5zm-5.2 1.3c.2.7-.3 1.2-1.2 1.2-.9 0-1.6-.7-1.6-1.6 0-1.7 2.2-1.4 2.8.4z"/><path d="M150.3 73c-.5 1.9-3.3 2.9-3.3 1.1 0-.5-.7-1.1-1.5-1.5-2.2-.8-1.8.9 1.1 4.3 2.8 3.4 8.4 5.5 9.6 3.7 1.4-2 .8-6.3-1-7.9-2.5-2.3-4.3-2.1-4.9.3zm27.7.6c-2.1 2.1-2.2 2.7-1 3.5 1.3.9 1.3 1.2-.2 2.1-1.4 1.1-1.5 1.4-.1 3.5 2.1 3.1 5.7 3 7.2-.3.6-1.5.9-2.9.6-3.2-.3-.3-.5-.1-.5.5 0 1.5-4.2 1.1-4.8-.5-.2-.6.1-1.2.7-1.2s.8-.6.5-1.4c-.3-.8.3-1.9 1.6-2.6 1.1-.6 1.8-1.5 1.5-2.1-1-1.6-3.1-1-5.5 1.7zm-36.7.1c-2.1.7-1.5 3.3.7 3.3 1.1 0 2-.6 2-1.4 0-1.8-1.1-2.5-2.7-1.9z"/><path d="M182.6 77.7c-.6 1.4-.5 1.5.5.6.7-.7 1-1.5.7-1.8-.3-.3-.9.2-1.2 1.2zm27.4-.3c0 .2.7.7 1.6 1 .8.3 1.2.2.9-.4-.6-1-2.5-1.4-2.5-.6zm-68.7 2.1c.8 1.9-1.2 3-2.6 1.6-.9-.9-.7-1.1.8-.6 1.6.6 1.7.5.5-.4-2.2-1.6-3-1.3-3 .9 0 1.1.6 2 1.3 2 1.5 0 3.8 4.8 2.6 5.6-1.2.7-3.1-.5-2.4-1.7.4-.5.1-.9-.5-.9-1.2 0-.8 1.8 1.6 7.5 1.5 3.7 12.2 13.2 13.4 11.9.4-.5 2.1-3.4 3.8-6.4l3-5.5L158 89c-1.4-3.5-2.5-4.7-5.1-5.6-2.4-.8-3.8-.8-5.1 0-2.2 1.3-2.3 4.2-.3 5 2.4.9 1.8 2.3-1.2 2.9-3.4.7-4.9-.5-2.8-2.3 2.2-1.9 1.9-4.3-.5-3.7-3 .8-2.4 0 1.5-1.9 4-1.9 4.3-2.9 1.6-4.4-2.9-1.5-5.4-1.3-4.8.5zm54.7 2.9c0 .8.5 1.8 1 2.1 2 1.2 1 2.7-1.4 2.1-3.9-1-4 1-.2 2.8 5.5 2.6 6.6 2.2 6.6-2.4 0-2.9-.5-4.2-1.9-5-2.7-1.4-4.1-1.3-4.1.4zm-20.9 1.2c0 1.1.3 1.4.6.6.3-.7.2-1.6-.1-1.9-.3-.4-.6.2-.5 1.3zm14.9-.2c0 .8.5 1.8 1 2.1.6.3 1-.1 1-.9s-.4-1.8-1-2.1c-.5-.3-1 .1-1 .9zm-75.5.6c-.4.7-.1 1.6.6 2.1 1.7 1 2.6-.8 1.1-2.3-.6-.6-1.2-.6-1.7.2zm5.5.5c0 .8.6 1.5 1.4 1.5.8 0 1.6.6 1.9 1.2.4 1 .7 1 1.8 0 1.2-1.1 1.1-1.6-.5-2.8-2.6-1.8-4.6-1.8-4.6.1zm66.8-.7c-3 .6-2.8 2.8.3 3 1.6.1 2.9-.1 2.9-.5 0-1.7-1.6-2.9-3.2-2.5zm-17.5 1.9c-1.5.5-1.7 2.3-.4 2.3.5 0 1.1-.7 1.5-1.5.3-.8.4-1.5.3-1.4-.1 0-.8.3-1.4.6zm-43.7 3.2c-2.6 2.9-1.8 4.8 1.7 4.2 1.5-.2.6 1.9-1.3 3.1-1.1.7-2 1.8-2 2.5 0 1.5 4.6 1.8 5.4.4.3-.5 2.4-.7 4.6-.4 2.2.3 4 .3 4 .1 0-.7-4-9.8-4.3-9.8-.1 0-1.6-.4-3.4-.9-2.5-.7-3.5-.6-4.7.8zm5.3 4.1c.6 0 1.1.7 1.1 1.5 0 2.6-2.7 1.6-3.5-1.2-.5-2.1-.8-2.4-1.6-1.2-.5.7-.9.9-.9.3 0-2 1.4-2.5 2.6-1 .6.9 1.6 1.6 2.3 1.6zm-43.8-3.4c1.6 2-.9 2.8-2.8.8-2-2-2.9-.4-1.4 2.4 1.1 2.1 6.8 5.2 9.5 5.2 1.2 0 1.6-1 1.6-3.8 0-3-.5-4.1-2.2-5-3.2-1.5-6.1-1.3-4.7.4zm86.9-.7c0 .5-.9 1.1-2 1.4-3 .8-2.4 2.3 1.4 4.1 5 2.4 6.3 2.1 6.9-1.7.2-1.7.3-3.5 0-4-.6-1-6.3-.9-6.3.2zm9 1.5c0 1.9.7 2.6 3 3.1 1.6.3 3.6.2 4.5-.2 1.4-.8 1.3-1.1-.5-2.8-2-1.8-2.1-1.8-3.4 0-.9 1.2-1.5 1.5-2 .7-.4-.7-.4-1.7-.1-2.2.3-.6.1-1-.4-1-.6 0-1.1 1.1-1.1 2.4zm8.2-.8c1 1 2 1.6 2.2 1.3.3-.3-.5-1.1-1.7-1.8-2.1-1.3-2.1-1.2-.5.5z"/><path d="M144 90c-1.8 1.2-.2 1.2 2.5 0 1.3-.6 1.5-.9.5-.9-.8 0-2.2.4-3 .9zm-65.3.8c-1 .2-1.6.9-1.4 1.5.4 1.4 4.7 2.3 4.7 1 0-1.7-1.6-2.9-3.3-2.5zM60 95c0 3.4 6 8 10.6 8 2.3 0 1.9-7.7-.5-9-2.8-1.5-3.8-1.3-4.4 1-.3 1.1-1 2-1.5 2s-1.2-.9-1.5-2c-.3-1.1-1-2-1.6-2-.6 0-1.1.9-1.1 2zm52.6-.5c-.3.8-.1 1.5.3 1.5.5 0 1.1-.7 1.5-1.5.3-.8.1-1.5-.3-1.5-.5 0-1.1.7-1.5 1.5zm53 .1c-3.8 3.7-.3 6 4.2 2.8 2.2-1.5 2.2-1.7.5-3-2.3-1.7-2.8-1.7-4.7.2zm28.2-1c.6.3 1.2 1.2 1.2 2 0 1.7-2.6 1.9-3.3.1-.3-.7-.6-.5-.6.5-.1 1 .6 1.8 1.4 1.8 1.5 0 2.2 3 .8 3-.5 0-1.8.3-3 .6-1.7.5-2.3.2-2.3-1 0-.9.5-1.6 1-1.6.6 0 1-.9 1-2s-.7-2-1.5-2-1.5.9-1.5 2c0 2.7-2.6 2.5-3.3-.2-.4-1.2-.9-2-1.2-1.6-.3.3.5 3 1.8 5.9 1.6 3.7 4.1 6.9 8.1 10.3 3.1 2.6 5.8 4.7 6 4.5.2-.2 1.8-3.2 3.6-6.5l3.3-6.2-1.9-4.8c-2-4.8-2.2-4.9-6.5-5.1-2.4-.1-3.8 0-3.1.3zM119 96.5c2.4 2.5 4.2 2.7 2.2.2-.7-.8-.9-1.7-.5-2 .3-.4-.4-.7-1.7-.7h-2.3l2.3 2.5zm-43.9.7c-.1 2.1.5 2.8 2.8 3.3 2.9.6 7.1-.8 7.1-2.3 0-1.4-2.4-3.2-4.2-3.2-1 0-1.8.6-1.8 1.4 0 2.6-2 2.8-2.9.4-1-2.3-1-2.3-1 .4zm23.1-.3c-1.6.9 4.3 8.1 6.7 8.1 2.1 0 5.1-3 5.1-5.2 0-.9-.6-2.1-1.4-2.7-1.6-1.4-4.6-.4-4.6 1.5 0 .8-.7 1.4-1.5 1.4s-1.5-.5-1.5-1.1c0-.5.5-.7 1-.4.6.3 1 .4 1 .1 0-1.1-3.7-2.4-4.8-1.7zm15.8 1c0 .5-.3 1.6-.6 2.5-.8 2.1 3.8 2.2 5.5.2 1-1.2.8-1.7-.8-2.5-2.4-1.3-4.1-1.4-4.1-.2zm56.7.9c-2.1 2.3-2.2 4.2-.2 4.2 2.4 0 1.8 2.7-.7 3.4-3.4.9-3.8.8-3.8-.9 0-.8.5-1.5 1-1.5.6 0 1-.9 1-2s-.7-2-1.5-2c-.9 0-1.5.9-1.5 2.1 0 1.6-.4 2-1.7 1.4-1.2-.4-.8.5 1.1 2.4 3.4 3.5 8.7 4.7 14.5 3.1 2.2-.6 4.1-1.3 4.1-1.5 0-.3-.7-2.2-1.6-4.4-1.1-2.8-2.4-4.3-4.6-5-4-1.4-4.2-1.4-6.1.7zm51.8-1.1c-4.6 1-5.1 1.4-3.2 2.4.9.6 1.5 1.5 1.1 2-.3.6.3.5 1.5-.3 1.2-.7 2.1-1.9 2.1-2.6 0-.8 1.2.1 2.6 1.8 2.6 3.1 2.7 3.1 4.1 1 2.9-4.1-.6-6-8.2-4.3zM54 98.9c0 .6.4 1.3 1 1.6.6.3.7-.1.4-.9-.7-1.8-1.4-2.1-1.4-.7zm183.2.5c.7.8 1.5 1.2 1.7 1.1.5-.6-1-2.5-2-2.5-.5 0-.4.6.3 1.4z"/><path d="M84.7 100.8c-2.1 2.3-2.2 4.2-.2 4.2 2.4 0 1.8 2.7-.7 3.4-3.4.9-3.8.8-3.8-.9 0-.8.5-1.5 1-1.5.6 0 1-.9 1-2s-.7-2-1.5-2-1.5.9-1.5 2c0 2.6-1.6 2.6-3-.1-2.1-3.9-2.1-1.2 0 3.7 3 6.9 11.4 15.3 9.5 9.5-.6-2.1 1-3.8 2-2.1.7 1.2 4.5 1.4 4.5.2 0-1.3-1.5-2.7-2.9-2.7-.8 0-1.6-.6-1.9-1.4-.3-1 .1-1.2 1.6-.9 1.5.4 1.9.2 1.5-.8-.3-.9.2-1.4 1.6-1.4 1.9 0 2.6 1.5 2.2 4.2 0 .4.6.5 1.5.1 1.3-.5 1.3-.7.2-1.4-1-.7-1-.9 0-.9 1.9 0 1.4-2.1-.7-2.7-1.7-.4-3.2-2.9-3.5-5.8-.1-1-2.3-2.3-4.2-2.4-.6-.1-1.8.7-2.7 1.7zm12.4-.2c0 1.1.3 1.4.6.6.3-.7.2-1.6-.1-1.9-.3-.4-.6.2-.5 1.3zm135.6 1.2c-2.7 5.2-2.8 10.3-.4 15.9l2.3 5.2 4.7-3.2c4.1-2.8 4.6-3.6 4.7-6.8 0-3.9-1.8-6.2-5.1-6.4-1.3-.1-1.9.5-1.9 1.8 0 1.1-.5 1.7-1.2 1.4-.7-.2-1.2-1-1-1.6.1-.6-.2-1.1-.8-1.1-.5 0-1-.7-1-1.6 0-1.1.6-1.5 2-1.1 2.9.7 3.4-.9 1.1-3.2L234 99l-1.3 2.8zM57 101.6c0 .8.7 2.2 1.5 3.1 1.4 1.4 1.8 1.4 3.5-.2 1.9-1.7 1.9-1.9.2-3.1-2.4-1.8-5.2-1.7-5.2.2zm65 .4c0 .8 2.5 2 4.1 2 2 0 .7-1.8-1.6-2.2-1.4-.3-2.5-.2-2.5.2zm13 1.1c0 .5-.8.9-1.7.8-3.5-.3-4.3.1-4.3 2.2 0 1.7.4 2 2.4 1.5 1.4-.3 2.8-.1 3.1.5 1.2 1.8-.3 2.2-3.6 1-3.7-1.3-4.2-1.1-3.3 1.3.4 1.1 1 1.3 1.8.7 1.2-1 5.6.3 5.6 1.7 0 .4-.6 1.4-1.2 2.1-1 1.1-1 1.3 0 .7.6-.4 1.2-.2 1.2.3 0 1.7-2.7 1.3-3.4-.4-.3-.8-1-1.5-1.6-1.5-1.6 0-1.2 2.7.5 3.4.8.3 1.5.9 1.5 1.5 0 1.2-5.2 2.1-6.5 1.2-1.8-1.4-5.4-2-4.8-.7 1.6 3.6 7.9 7 17.1 9.2 5.3 1.3 10 2.4 10.5 2.4.4 0 .7-4.7.7-10.3v-10.4l-4.9-4.1c-4.7-4-9.1-5.5-9.1-3.1zm81 .7c0 3.1 2.8 6 7.5 7.5l4.5 1.6v-4.4c0-3.4-.5-4.7-1.9-5.5-2.8-1.5-3.8-1.3-4.4 1-.3 1.1-1.1 2-1.9 1.9-1 0-1-.2 0-.6 1-.4.9-.8-.5-1.9-2.4-1.8-3.3-1.7-3.3.4zm-116.8 1.6c.6 1.4 1.5 2.3 1.9 2 1.5-.9 1-2.3-1.1-3.4-1.8-1-1.9-.9-.8 1.4zm60.4-.7c-.6 1.4-.5 1.5.5.6.7-.7 1-1.5.7-1.8-.3-.3-.9.2-1.2 1.2zm-96.3.5c-1.9 2.5-2.3 4.8-.8 4.8 2.4 0 1.7 2.7-.7 3.4-3.4.9-3.8.8-3.8-.9 0-.8.5-1.5 1.2-1.5.9 0 .9-.3.1-1.1-.9-.9-1.6-.7-2.9.6-1.7 1.6-1.6 1.8.7 3.5 1.3 1 3.8 2.1 5.5 2.5 3.6.6 11.2-.3 11.9-1.6 1-1.6-2.7-8.8-4.8-9.4-1.2-.4-2.9-.9-3.8-1.1-.9-.2-2.1.1-2.6.8zm54.4-.6c-1.2 1.2-.8 2.4.8 2.4.8 0 1.5.7 1.5 1.5s-.6 1.5-1.4 1.5c-.8 0-1.8.4-2.1 1-.3.6.4 1 1.8 1 2.9 0 8.4-4.7 7-6.1-1.2-1.2-6.7-2.2-7.6-1.3zm94.5.2c-1.9.3-2.1.6-1.1 1.8 1.2 1.5 4.9 2 4.9.6-.1-1.7-1.6-2.7-3.8-2.4zm-99.2 1.7c0 .8.7 1.5 1.5 1.5s1.5-.7 1.5-1.5-.7-1.5-1.5-1.5-1.5.7-1.5 1.5zm46.7.3c-.9.2-1.5.8-1.1 1.3.3.6-.3 1.8-1.5 2.8-2 1.8-2 1.8 1.3 1.9 2.1.1 4-.6 5-1.7 1.5-1.6 1.5-1.9-.1-3.3-1-.8-2.6-1.3-3.6-1zm-54.8 3.3c-1.3 1-2.4 2.8-2.4 4.1 0 1.4-.6 2.3-1.5 2.3-2.5 0-1.7 2.9 1 3.5 2 .5 10.4-.6 11.8-1.5.7-.5-3.8-9.3-5-9.8-.8-.2-2.5.3-3.9 1.4zm100.9 2.8c-2.3 4.2-2.8 6.6-3.4 16.6l-.7 11.6 4.9-.6c2.7-.4 7.8-1.2 11.3-1.8l6.3-1.2 3.6-6.5 3.5-6.5-1.8-4.8c-1.5-3.9-2.3-4.8-5.3-5.7-2.9-.8-4-.6-5.4.7-2.2 2-2.4 4.3-.3 4.3 1.5 0 2.2 3 .8 3-.5 0-1.8.3-3 .6-1.7.5-2.3.2-2.3-1 0-.9.5-1.6 1-1.6.6 0 1-.9 1-2s-.7-2-1.5-2-1.5.9-1.5 2c0 2.5-1.6 2.6-3 .1-1.8-3.4-1.2-4.2 2.3-3.6 4.3.8 7.8-1.5 5.8-3.9-1.9-2.3-5.1-2.1-5.1.4 0 2.8-1.9 2.5-3-.5-.5-1.4-1.1-2.5-1.2-2.5-.2 0-1.5 2.2-3 4.9z"/><path d="M123.8 111.4c-2.2 1.6-2.4 4.6-.3 4.6.8 0 1.5.8 1.5 1.7 0 1.6.1 1.6 1.7 0 1.5-1.5 1.5-2 .2-4.6-1.2-2.6-1.6-2.8-3.1-1.7zm41.1.8c-.9.7-1.9 2.3-2.1 3.4-.4 1.7-.2 2 1.3 1.7 1.1-.3 1.9 0 1.9.7 0 .6-.9 1.4-2 1.7-2.3.6-2.7 2.3-.5 2.3 2.5 0 6.5-3.1 8.1-6.2.9-1.7 1.4-3.2 1.2-3.4-1.3-1.2-6.5-1.4-7.9-.2z"/><path d="M177.3 112.7c-2.5.5-4.8 5.3-3.8 8.2.7 2.2 2.9 2.8 4 1.1 1.1-1.7 2.3-1.1 2.7 1.5.6 3.1-1.1 4.4-2.7 2.2-1.5-2.1-3.5-2.2-3.5-.2 0 .8.7 1.5 1.5 1.5 2.4 0 1.8 2.7-.7 3.4-3.4.9-3.8.8-3.8-.9 0-.9-.6-1.2-1.7-.9-1.5.5-1.6.4-.3-.5.8-.6 1-1.1.4-1.1s-1.7.7-2.4 1.5c-.9 1.1-1.6 1.3-2.4.5-.7-.7-.6-1.4.2-2.2 1.7-1.7 1.5-3.8-.4-3.8-.8 0-1.3.4-1 .9.3.5-.1 1.4-.8 2-1.5 1.3-3.2-.1-2.2-1.8.4-.5.1-1.1-.6-1.3-.8-.3-.7-1.4.5-3.8 2.2-4.3 2.1-5-.3-5-1.2 0-1.7.5-1.4 1.4.3.8.1 1.7-.5 2.1-.6.3-1.1 3.7-1.1 7.5 0 6.4.5 8 6.1 20.2 3.4 7.3 6.3 13.4 6.4 13.6.2.2 5.7-3.5 12.2-8.3 13.2-9.7 13-9.4 13.2-22.1l.1-8.1-4.9-4.1c-4.9-4.1-6.8-4.7-12.8-3.5zm-140.7 1c-2.1 2.1 2.7 7.8 7.7 8.9 3.1.7 4.9-.2 2.8-1.5-1.1-.7-1-1.2.1-3 1.1-2 1.1-2.4-.6-3.7-2.8-2-4.6-1.8-4.6.6 0 1.1-.7 2-1.5 2s-1.5-.6-1.5-1.4c0-1.7-1.4-2.8-2.4-1.9zm15.6.5c-1.6 1.6-1.5 5.8.1 5.8.8 0 2.1-.8 3.1-1.8 1.5-1.8 1.5-2-.2-3.5-1.4-1.3-2.1-1.4-3-.5zm65.8 1.3c0 1.8.4 2.3 1.5 1.9.8-.4 1.5-1.5 1.5-2.5s-.7-1.9-1.5-1.9c-.9 0-1.5.9-1.5 2.5zm-29.8 3c-.7.9-.8 1.5-.2 1.5.5 0 .9.5.8 1.1-.6 2.4 1.9 1.8 3-.6.7-1.4 1.2-2.8 1.2-3 0-1.1-3.6-.3-4.8 1zm-31.3.7c-.9.7-1.9 2.3-2.1 3.4-.4 1.7-.2 2 1.3 1.7 1.1-.3 1.9 0 1.9.7 0 .6-.9 1.4-2 1.7-2.5.7-2.6 2.3-.2 2.3 2.6 0 6-2.7 7.8-6.2 1.8-3.5 1.8-3.4-2.1-4.2-1.9-.4-3.7-.2-4.6.6zm194.1 0c0 .7-.3 2.2-.6 3.3-.3 1.3.3 3.2 1.7 4.9l2.3 2.9 1.7-2.2c2.2-2.7 1.4-6.4-1.2-5.6-1.4.5-1.9.1-1.9-1 0-1.2.6-1.6 1.9-1.2 1.4.3 1.8.1 1.4-.9-.6-1.7-5.3-1.9-5.3-.2zm-181.7.5c-2.5.5-4.8 5.3-3.8 8.2.7 2.2 2.9 2.8 4 1.1 1.1-1.7 2.3-1.1 2.7 1.5.6 3.1-1.1 4.4-2.7 2.2-1.5-2.1-3.5-2.2-3.5-.2 0 .8.7 1.5 1.5 1.5 2.4 0 1.8 2.7-.7 3.4-3.4.9-3.8.8-3.8-.9 0-.9-.6-1.2-1.7-.9-1.6.5-1.6.4-.3-.6s1.3-1.1 0-.7c-2.7.7-2.1 3.2 1.7 6.1 2.7 2.2 6.3 3.6 13.2 5.2 5.3 1.1 9.7 2 9.9 1.9.1-.1.5-4.7.8-10.1l.5-9.9-5-4.3c-4.9-4.2-6.8-4.7-12.8-3.5z"/><path d="M241.4 122.4c-3.9 2.7-5.9 5-8.7 10.4l-3.7 7 7.6 2.6 7.7 2.6 4.6-3.3c3.6-2.6 4.7-4 4.9-6.6.6-5.4-4.1-9-7.4-5.7-1.1 1.1-1.1 1.6-.1 1.9.7.4.6.6-.4.6-.9.1-1.9-.9-2.3-2.2-.9-3.3-.8-3.7.9-3.7.8 0 1.5.5 1.5 1.1 0 .5-.5.7-1.2.3-.6-.4-.8-.3-.5.4.5.7 1.5.7 3.2-.1 2.9-1.4 2.8-3.1-.3-3.5-2.5-.4-3.1-3.2-.7-3.2.8 0 1.5-.5 1.5-1 0-1.6-1.3-1.2-6.6 2.4zm-73-.3c-1.8 2-1.8 2.1.6 4 3.1 2.3 4 2.4 4 .1 0-2.6-1.1-6.2-2-6.2-.4 0-1.5.9-2.6 2.1zm89.3-1.5c-.3.4-.2 1.5.4 2.6.8 1.5 1.3 1.7 2.4.8.8-.6 1.1-1.8.8-2.6-.5-1.4-2.5-1.9-3.6-.8zm-206.7 3c0 2.2.2 2.5 1.5 1.4.8-.7 1.5-1.9 1.5-2.6 0-.8-.7-1.4-1.5-1.4-1 0-1.5 1-1.5 2.6zm45-.1c-1 1.8-1 2.8-.2 3.8.9 1 .9 1.6 0 2.5-1.9 1.9 0 2.6 2.5.9 2.2-1.4 5.5-7.3 4.6-8.1-.2-.2-1.6-.6-3-.9-2.1-.5-2.8-.2-3.9 1.8zm12.4-.4c-4.2 1.2-6.1 5.3-3.9 8.5 1.8 2.7 3.5 3.1 3.5.8 0-2.8 2.5-.9 2.8 2.2.2 2.2 0 2.6-.7 1.4-.8-1.1-1.1-1.2-1.1-.2s-.5.9-1.7-.4c-1.3-1.2-1.8-1.3-2.1-.4-.3.7.3 1.7 1.2 2.2 2.3 1.3 2 2.8-.6 2.8-1.2 0-1.9.3-1.6.6.4.3 2.7.2 5.3-.1 3.4-.6 6.1-1.9 10.2-5.3l5.6-4.6-4.9-4.3c-5-4.4-6.6-4.8-12-3.2zm-69.3 2.6c-2.4 1.6-2.8 4.3-.6 4.3 2.4 0 1.8 2.7-.7 3.4-3.4.9-3.8.8-3.8-.9 0-.8.5-1.5 1-1.5.6 0 1-.9 1-2 0-2.5-1.8-2.6-2.7-.3-.4 1-1.1 2.1-1.7 2.5-1.6 1 3.4 4.6 7.5 5.3 4 .7 10.6-.2 11.4-1.5.4-.7-2.3-9-2.9-9 0 0-1.5-.4-3.3-.9-2.3-.7-3.7-.5-5.2.6zm221.6-.6c-2.5 1.5-4.7 6.3-4.7 10.3 0 3.4 0 3.5 3.8 2.9 2-.3 4.3-1.2 5-2.1 1.8-2.4 1.5-5.3-.8-5.9-2.1-.6-2.7-2.8-1-3.8 1.2-.7 1.3-2.5.3-2.5-.5 0-1.6.5-2.6 1.1zm-199.5 3.1c-1.7 1.7-1.5 3.9.6 5.4 2.5 1.9 3.2 1.7 3.2-.9 0-3.5-2.2-6.1-3.8-4.5zm-5.9 3.8c.2 2.4 2.1 2.1 2.5-.3.2-1-.3-1.7-1.2-1.7-.9 0-1.4.8-1.3 2z"/><path d="M99.7 131.8c-2.1 2.3-2.2 4.2-.2 4.2 2.1 0 1.9 3-.2 3.1-1.2 0-1.3.2-.5.6.7.3 1.9 0 2.7-.7.8-.6 1.9-.9 2.4-.6 1.1.7-.1-4.1-1.6-6.9-.8-1.4-1.1-1.4-2.6.3zm-5.2 2.2c-.7 1.2.2 3 1.6 3 .5 0 .9-.9.9-2 0-2.1-1.5-2.7-2.5-1zm29.2 4.6c-4.3 3.3-4.7 4.1-4.7 7.9 0 2.8.6 4.7 1.8 5.8 3.4 3.1 8.9 1.5 6.2-1.8-.7-.9-.8-1.5 0-2 1.7-1.1 3 .5 2.4 3-.5 2-.2 2.4 1.4 2.2 1.2 0 1.8-.5 1.6-.9-.3-.4-.1-.8.4-.8 1.6 0 2.1 5.1.6 5.7-.8.3-1.4 1.8-1.4 3.4 0 1.9-.5 2.9-1.5 2.9-.8 0-1.5.7-1.5 1.5s-.6 1.5-1.4 1.5c-.8 0-2.1.3-2.9.6-.8.3-2.7-.6-4.2-2-3.4-3.1-3.5-3.1-3.5-.6 0 1.1.6 1.9 1.3 1.7.6-.1 1.2.4 1.2 1.2 0 1.7-4.3 2.5-6 1.1-.7-.6-2.5-.8-3.9-.4-2 .5-2.6.2-2.6-1 0-.9.5-1.6 1-1.6.6 0 1-.9 1-2s-.5-2-1.1-2c-.6 0-1.3.9-1.6 2-.7 2.7-2.9 2.5-3.7-.3-.8-3-.7-3.9.2-3.3 1 .6 1.5-5 .7-7.5-.5-1.5-1-1.7-2.6-.9-2.2 1.3-2.6 5-.4 5 1.7 0 2.1 2.6.4 3.2-.6.2.4 3.4 2.5 7.8 3 6.3 4.6 8.3 10 12.5 23.1 17.9 26.8 20.6 27.6 19.9.4-.5 4.7-8.7 9.5-18.2 5.9-11.9 8.4-17.9 8-19.2-.7-2.2-10.5-23.3-11.1-23.9-.5-.5-15.6-4.1-17.5-4.1-.9 0-3.7 1.6-6.2 3.6zm8.3 10.8c0 .8-.4 1.7-.8 2-.4.2-.8-.4-.8-1.5 0-1 .4-1.9.8-1.9s.8.6.8 1.4zm-99.2-10c-1 .7-1.8 2.1-1.8 3 0 1.9 2.6 2.2 3.3.3.3-.9.8-.9 1.8.2 1.1 1 1.1 1.5.2 1.8-.7.3-1.3 1.2-1.3 2 0 1.3.3 1.3 1.6.2 1.6-1.3 4.8-6.9 4.2-7.4-1.3-1.2-6.6-1.3-8-.1zm13 .3c-2.1.3-3 1.2-3.4 3.1-.3 1.5-.7 3.2-.9 3.8-.2.7.4 1 1.7.6 1.6-.4 2-.1 1.6.9-.4 1 .1 1.5 1.5 1.7 1.8.1 1.9-.1.7-.9-1.3-.9-1.3-1 0-.7 1.7.5 1.9 5 .2 5.6-.6.2-1.5-.3-1.8-1.2-.8-2-3.4-2.1-3.4-.1 0 .8.7 1.5 1.5 1.5 2.1 0 1.9 3-.2 3.1-1 0-1.3.3-.7.5 2.6 1.1 9.6-1.6 14.8-5.7l5.6-4.4-4.7-4.2c-4.8-4.2-6.1-4.6-12.5-3.6zm48.2.8c0 1.6 1.6 2 2.4.6.3-.5-.1-1.1-.9-1.5-.9-.3-1.5 0-1.5.9zm163.9.5c-2.9.8-10.9 5.9-10.9 6.9 0 .4 1.8 2.4 3.9 4.5 3.6 3.5 4.3 3.8 7.8 3.3 2.1-.4 4.4-1.4 5.1-2.4 1.8-2.5 1.1-5.9-1-5.5-1.1.2-1.8-.3-1.8-1.3 0-.8.7-1.5 1.5-1.5s1.5-.7 1.5-1.5.4-1.5.9-1.5c1.6 0 2.4 2.1 1.3 3.2-.5.5-.7 1.8-.5 2.9.4 1.4.9 1.6 2.3.9 1.1-.6 1.6-1.7 1.3-2.9-.3-1.3.1-2.1 1.4-2.4 1.4-.3.9-.8-1.9-2-4-1.8-6.8-2-10.9-.7zM27 142.4c0 .8.7 1.6 1.5 2 1 .4 1.5-.1 1.5-1.4 0-1.1-.7-2-1.5-2s-1.5.6-1.5 1.4zm68.7 1.4c-2.1 2.3-2.2 4.2-.1 4.2 1.2 0 1.5.6 1 2.5-.7 2.9-.4 3 2.8 1 2.2-1.5 5.4-7.1 4.5-7.9-.2-.2-1.8-.7-3.5-1-2.3-.5-3.4-.2-4.7 1.2z"/><path d="M109.7 143.7c-5.1.8-7.5 10.3-2.6 10.3 1 0 1.9-.5 1.9-1.1 0-2.3 2.5-.1 2.7 2.4.2 3-1.1 3.5-3.4 1.2-.8-.8-1.9-1.3-2.4-1-1.5 1-1 2.5.9 2.5 1.3 0 1.4.2.4.9-1.1.7-1 1 .3 1.5 2.4.9 7.2-4.3 8-8.7.9-4.4-.1-8.8-1.8-8.6-.6.1-2.4.4-4 .6zM31.5 148c-1.9.8-1.9.9.3.9 1.2.1 2.2-.4 2.2-.9 0-.6-.1-1-.2-.9-.2 0-1.2.4-2.3.9zm5.5.5c-1.1 1.3-1 1.4.6.9 1.8-.7 1.8-.6.2 1.2-1.6 1.9-1.6 2 .2 3.2 1.1.7 2.2 1.2 2.5 1.2.9 0 .5-4.9-.5-5.5-.6-.4-.8-1.1-.5-1.6 1-1.5-1.2-1-2.5.6zm-7 3.2c-1.3 1.5-1.2 1.6.2 1 .9-.3 1.9-.1 2.2.6.3.9.8.8 1.5-.3.6-.8 1.1-1.8 1.1-2.3 0-1.3-3.5-.6-5 1zm31.8 3.1c-4.4 3.4-4.7 4-4.8 8.3 0 6.4 4.4 10.1 7.8 6.7.9-.9 1.2-.9 1.2 0 0 .7.7 1.2 1.5 1.2s1.5-.5 1.5-1c0-.6.6-1 1.3-1 .9 0 1.4 1.2 1.5 3 0 2-.4 3-1.4 3-.8 0-1.4-.7-1.4-1.5 0-1-1-1.5-2.9-1.5-3.7 0-4.5 1.1-2.6 3.6 1.2 1.6 1.6 1.7 2.4.5 1.3-2 3.9-.7 3.7 2-.1 2.5-2.6 3.9-2.6 1.5 0-.9-.8-1.6-2-1.6-1.1 0-2 .7-2 1.5s.7 1.5 1.5 1.5 1.5.7 1.5 1.5-.5 1.5-1.1 1.5c-.5 0-.7-.6-.3-1.3.4-.6-.1-.4-1.2.5-1.9 1.6-2.1 1.6-4.8-.7-3.3-2.9-4.6-3.1-4.6-1 0 .8.6 1.5 1.4 1.5.8 0 1.6.5 1.8 1 .2.6 3 1.7 6.2 2.4 5.7 1.4 6.4 1.3 19.7-2.1l13.7-3.6-5.5-11.6c-3-6.4-5.7-12.1-5.9-12.7-.3-.6-4.1-1.9-8.5-2.8-4.5-1-8.6-1.9-9.3-2.1-.6-.2-3.2 1.2-5.8 3.3zm7.9 11.8c.4 1.3-2.5 2.3-4.4 1.7-.7-.3-1.3-1.1-1.3-1.9 0-1.8 5.1-1.6 5.7.2zM19.5 154c-1 1.6 2.4 6.3 4 5.6.8-.3 1.7-.1 2 .4.9 1.5 4.1 1.2 5.6-.6 1.6-2-.1-5-2.6-4.6-1 .2-1.4-.1-1-.7.3-.6.2-1.1-.4-1.1-.5 0-.9.9-.8 1.9 0 1.1.5 1.7.9 1.5.4-.3.8 0 .8.7s-.9.9-2.2.5c-1.3-.3-2.6-.6-3-.6-.5 0-.8-.6-.8-1.4 0-1.9-1.7-2.9-2.5-1.6zm17.9.8c.3.5 0 1.3-.6 1.5-.8.3-.6.6.5.6 1.9.1 2.3-1.4.5-2.5-.6-.4-.8-.3-.4.4zm78.8 1.6c-.9 2.1-.8 2.9.8 4.8 1.9 2.1 2.1 2.2 3.1.5 1.2-2.1 2.9-1.3 2.9 1.4 0 1.1.5 1.7 1 1.4 1.8-1.1 1.1-4.3-1.6-7.4-3.1-3.7-4.7-3.9-6.2-.7zm9.1-.7c-.9.3-1 1-.3 2.4 1.1 2 4 2.6 4 .9 0-.6.7-1 1.5-1 .9 0 1.2-.6.9-1.5-.6-1.5-3.6-1.9-6.1-.8zM34 161.2c0 3.9 1.2 6.8 2.6 6.8.7 0 2.3-1.7 3.3-3.9l2-3.9-3.1-.6c-4.5-.9-4.8-.8-4.8 1.6zm12.4-.5c-2.2.4-4.4 4.1-4.4 7.4 0 2.2 3.2 3.9 3.8 2.1.8-2.5 3.2-1.2 3.2 1.8 0 2-.5 3-1.5 3-.8 0-1.5-.7-1.5-1.5s-.7-1.5-1.5-1.5-1.5.7-1.5 1.5.7 1.5 1.5 1.5 1.5.7 1.5 1.7c0 1.4.2 1.4 2.1-.3 3.3-3 4.9-6.9 4.9-11.9 0-4.8-.4-5-6.6-3.8zm64.8.5c-1.6 1.6-1.5 3.8.2 3.8.7 0 1.6.9 1.9 2.1.8 2.9 3.3 1.8 2.8-1.2-.4-2.9-1.9-5.9-2.9-5.9-.5 0-1.3.5-2 1.2zm14.8 1.3c0 .8.7 1.5 1.5 1.5s1.5-.7 1.5-1.5-.7-1.5-1.5-1.5-1.5.7-1.5 1.5zm-97.2.2c.7.3 1.6.2 1.9-.1.4-.3-.2-.6-1.3-.5-1.1 0-1.4.3-.6.6zm-6.6 2.9c-2.5 1.7-2.9 4.4-.7 4.4.8 0 1.5.7 1.5 1.6 0 1-.6 1.4-1.5 1-.8-.3-1.5-.1-1.5.4 0 .6-.7 1-1.5 1s-1.5-.7-1.5-1.5.5-1.5 1-1.5c.6 0 1-.9 1-2s-.7-2-1.5-2-1.5.9-1.5 2-.5 2-1.2 2c-.6 0-.1 1.1 1.1 2.4 2.8 3 8.2 4 13.8 2.8 3-.7 4.4-.6 4.7.2.3.6.3 0 0-1.4-.9-3.5-2.4-4.9-2.4-2.1 0 1.4-.5 2.1-1.2 1.8-.7-.2-1.2-1.2-1.2-2.1.1-.9-.2-1.6-.7-1.6-.5 0-.7-1.4-.4-3.1.5-2.7.3-3-1.1-2.5-1 .4-2 .2-2.4-.4-.4-.6-1.4-.4-2.8.6zm16 3.6c-1.7 1.7-1.5 3.2.6 5.1 2.5 2.3 3.2 2.1 3.2-.6 0-3.5-2.2-6.1-3.8-4.5z"/><path d="M54 172.5c-1.3 3.5-1.3 4.1.6 6 1.5 1.4 1.7 1.4 2.9-.1 1.4-2 3.7-1.1 2.8 1.1-.3.8 0 1.5.6 1.5 3.1 0 0-7.9-4-10-1.6-.9-2.1-.7-2.9 1.5zm-5.3 5.2c-1.2 1.2-.7 3.6 1.1 4.9 2.4 1.9 3.2 1.7 3.2-.5 0-4.1-2.3-6.5-4.3-4.4zM15.8 179c-2.2 1.3-2.4 5-.3 5 2.3 0 1.8 2.6-.7 3.8-2.2 1-2.2 1.1-.3 1.1 1.1.1 3.1-.6 4.3-1.5 2.2-1.5 5.7-7.2 5-8-1.1-1-6.5-1.3-8-.4zm13 .7c-3 .5-5.4 4.9-4.3 8.2.7 2.2 2.9 2.8 4 1 1.1-1.7 2.8-.5 3.1 2.4.2 2-.2 2.7-1.4 2.7-1.3 0-1.4-.2-.4-.9 1-.6.8-1-1-1.4-3.4-1-3.8-.9-3.8.8 0 .8.7 1.5 1.5 1.5s1.5.7 1.5 1.5-.7 1.5-1.7 1.5c-.9 0-1.4.3-1 .6 1.4 1.5 10.3-2 15.4-5.9l5.4-4.2-4.8-4.2c-4.8-4.2-6-4.6-12.5-3.6zm16.7.3c.3.5.8 1 1.1 1 .2 0 .4-.5.4-1 0-.6-.5-1-1.1-1-.5 0-.7.4-.4 1zm-25.3 8.2c-.7.7-1.3 2.1-1.3 3.2-.1 1.7-.2 1.8-.6.3-.2-.9-1.3-1.7-2.3-1.7-1.3 0-1.7.5-1.3 1.9.4 1.4 1.2 1.7 3.9 1.4 3.6-.4 4.5 1 1.7 2.6-1.2.7-1.3 1.1-.5 1.1 3.2 0 5.1-4.4 3.6-8.4-.7-1.9-1.6-2-3.2-.4zm24.6 6.6c-4.4 3.4-4.7 4-4.8 8.3 0 4.8 2 7.9 5.2 7.9 2.1 0 4.2-2.6 2.8-3.5-2-1.2-1-2.6 1.7-2.3 3.3.4 4.1 2.4 1.3 3.1-2.3.6-2.7 2.7-.5 2.7.8 0 1.5-.5 1.5-1 0-.6.7-1 1.5-1 2 0 2 4.7 0 6.7-2.9 2.9-.5 2.7 3.1-.3 2.4-2 4.7-5.6 7.4-11.5l3.8-8.6-7.7-1.7c-4.2-1-8.3-1.9-9.1-2.1-.8-.2-3.6 1.3-6.2 3.3zm-28.5 5.4c-.6.7-1.2 2.3-1.5 3.4-.4 1.7-.2 2 1.3 1.7 1.1-.3 1.9 0 1.9.7 0 .6-.9 1.4-2 1.7-2.5.7-2.6 2.3-.2 2.3 2.4-.1 5.7-2.9 7.6-6.6 1.5-3.1 1.5-3.2-.7-3.8-3.4-.9-5.4-.7-6.4.6zm13 .5c-3.2.6-4.9 5.5-3.2 9.5.8 1.8 1.3 3.6 1.1 4-.1.5.2.8.8.8.6 0 1 .7 1 1.7 0 1.4.2 1.4 2.1-.3 3.3-3 4.9-6.9 4.9-11.9 0-4.8-.4-5-6.7-3.8zM32 211v2.7c0 1.7-2.3.7-3.9-1.7-.9-1.4-1.1-2.1-.3-1.6.6.4 1.2.2 1.2-.3 0-.6.7-1.1 1.5-1.1s1.5.9 1.5 2zm-11.2-1.6c-3.7 2.8-.9 6.2 3.1 3.7 1-.7 1.1-1.3.2-3-1.4-2.5-1.1-2.4-3.3-.7zm16.1 3.2c-1.7 4.8.9 8.2 3.9 5.2 1.9-1.9 3.9.6 2.2 2.7-1.1 1.3-1 1.4.4.9 2.4-.9 1.9-4.8-1-8.3-3.2-3.8-4.2-3.9-5.5-.5z"/><path d="M45 212.6c0 1.3 2.2 4.4 3.1 4.4 1.4 0 3.9-2.6 3.9-3.9 0-.6-1.6-1.1-3.5-1.1s-3.5.3-3.5.6zm-12.5 4.8c-2.3 1.6-1.4 4.6 1.5 4.6 2.1 0 2.7-2.4 1.2-4.7-.7-1-1.2-1-2.7.1zm25.7 3.4c-3.8 3.3-4.2 4.1-4.2 8.2.1 5.4 3 8.3 6.8 6.9 2.2-.8 3.1-2.9 1.2-2.9-.5 0-1-.7-1-1.5 0-1.1.8-1.5 2.8-1.2 1.8.3 2.7 1 2.6 2.1-.1.9.4 1.6 1.2 1.6 2.3 0 1.6-6-1.3-11.7-1.6-2.9-3-5.3-3.3-5.3-.3 0-2.4 1.7-4.8 3.8zM46 219.5c0 .8.9 1.5 2 1.5s2-.7 2-1.5-.9-1.5-2-1.5-2 .7-2 1.5zm-9 1.9c0 1 .9 1.6 2.1 1.6 2.4 0 2.1-2.3-.4-2.8-1-.2-1.7.3-1.7 1.2zm-5.7 3.9c-2.6 1.1-3.1 4.7-.8 4.7.8 0 1.5.7 1.5 1.5s-.9 1.5-2 1.5-2 .4-2 1c0 .5 1 1 2.3 1 2.4 0 5.6-2.8 7.6-6.8 1.1-2.1 1-2.2-1.3-1.6-1.7.4-2.5.1-2.8-.9-.2-1.1-.8-1.2-2.5-.4zm13.5.4c-5.1.8-7.9 8.1-3.9 10.2 1.4.8 2 .7 2.5-.4.9-2.3 2.3-1.8 2.9 1.1.5 3-2 4.6-3.5 2.1-1.3-2.3-2.8-2.1-2.8.4 0 1.1.5 1.7 1 1.4.6-.3 1.3.1 1.6.9.8 2.2 3.9.4 5.9-3.4 1.9-3.6 2.1-13.1.3-12.9-.7.1-2.5.4-4 .6zm28.2 6.4c0 4.6 1.9 6.8 5.7 6.9 2.7 0 4.1-1.9 2.2-3.1-1.1-.6-1.1-1.1-.1-2.1 1.9-1.9 3.7.4 2.3 3.1-1.3 2.4-.2 2.8 2.8.9 3.9-2.4-1.4-8-8.7-9.3l-4.2-.7v4.3zm12.4 3.9c-.6.6-1 .3-1-1s.4-1.6 1-1c.7.7.7 1.3 0 2z"/><path d="M64.2 233.5c-.9 2-.9 2.5.2 2.5.8 0 1.4-1.1 1.4-2.5s-.1-2.5-.3-2.5c-.1 0-.7 1.1-1.3 2.5zm25-1.7c-1.5 1-.6 4.2 1.2 4.2.6 0 2-.7 3.1-1.6 1.7-1.3 1.8-1.6.5-2.4-1.8-1.2-3.1-1.2-4.8-.2zM51 238c-.9 2.1-.9 3.4 0 4.9 1.1 2.1 4 2.9 4 1.1 0-1.7 2.8-1.1 3.3.7.3 1.3.5 1.2.6-.5.1-3.1-1.3-5.6-4.3-7.5-2.3-1.6-2.4-1.5-3.6 1.3zm9.3-.3c-2.2.8.4 4 3.6 4.5 1.7.2 2.8.1 2.5-.3-.2-.4.2-1 .8-1.3.7-.3.2-.3-1.2 0-1.8.4-2.1.3-1.1-.4 2.8-2-1-4-4.6-2.5zm9.9 3.8c-.9 1.9-.9 3.2-.2 4.6 1.1 2 4 2.7 4 .9 0-.6.7-1 1.5-1 .9 0 1.5.6 1.3 1.3-.2.7.2 1.4.7 1.5 1.9.6 1.5-2.4-.8-5.8-2.9-4.4-5-4.8-6.5-1.5zm9.6-.8c-1.4.4-1.6.8-.8 2.4 1.3 2.3 2.6 2.4 4.6.4 2.6-2.6.6-4-3.8-2.8zm-33.6 2.5c-1.4 1.4-1.6 3.8-.2 3.8.5 0 1.6 1.2 2.3 2.6l1.4 2.7.1-3.4c.2-6.1-1.1-8.2-3.6-5.7zm13.8 1.2c0 1 .9 1.6 2.1 1.6 2.4 0 2.1-2.3-.4-2.8-1-.2-1.7.3-1.7 1.2z"/></svg>