<?xml version="1.0" standalone="no"?>
<!DOCTYPE svg PUBLIC "-//W3C//DTD SVG 20010904//EN"
 "http://www.w3.org/TR/2001/REC-SVG-20010904/DTD/svg10.dtd">
<svg version="1.0" xmlns="http://www.w3.org/2000/svg"
 width="286.000000pt" height="286.000000pt" viewBox="0 0 286.000000 286.000000"
 preserveAspectRatio="xMidYMid meet">
<metadata>
Created by potrace 1.11, written by Peter Selinger 2001-2013
</metadata>
<g transform="translate(0.000000,286.000000) scale(0.100000,-0.100000)"
fill="#000000" stroke="none">
<path d="M0 1430 l0 -1430 655 0 655 0 -2 352 -3 352 -153 119 -153 119 -112
-27 c-62 -15 -119 -31 -127 -36 -9 -4 -31 -41 -49 -83 l-33 -75 29 -53 c24
-45 33 -54 64 -59 26 -4 42 -1 58 13 29 23 24 54 -8 50 -19 -3 -22 0 -19 20 2
13 10 23 18 23 8 0 14 -6 12 -13 -1 -6 5 -12 13 -12 18 0 20 17 3 22 -6 2 -8
10 -4 16 9 15 47 6 59 -14 4 -8 17 -14 27 -14 26 0 26 -26 0 -33 -13 -3 -25 2
-34 15 -18 25 -36 16 -36 -18 0 -26 7 -29 30 -14 9 6 19 5 28 -2 10 -9 16 -8
23 3 7 12 9 12 9 -1 0 -12 2 -12 9 -2 5 9 8 3 9 -17 0 -16 -6 -35 -13 -41 -18
-15 -55 -3 -55 16 0 11 6 13 20 9 11 -4 20 -2 20 4 0 22 -66 12 -89 -13 l-22
-24 21 -15 c23 -16 49 -12 62 7 5 7 8 7 8 -1 0 -7 7 -13 15 -13 8 0 15 5 15
11 0 23 25 1 27 -24 1 -19 -3 -27 -14 -27 -11 0 -14 -7 -11 -25 7 -32 -8 -42
-31 -21 -22 20 -31 20 -31 1 0 -8 7 -15 15 -15 28 0 15 -28 -15 -35 -23 -5
-30 -12 -30 -31 0 -27 -24 -33 -34 -9 -3 8 -10 15 -16 15 -16 0 -12 -22 8 -36
16 -11 15 -13 -11 -23 -29 -11 -67 0 -67 19 0 18 -30 10 -31 -7 0 -11 -4 -7
-9 9 -13 44 -19 49 -41 38 -24 -13 -24 -25 -1 -48 11 -11 29 -17 50 -15 39 3
42 -14 5 -28 -22 -8 -30 -7 -39 6 -8 11 -20 14 -38 9 -20 -5 -26 -2 -26 10 0
9 5 16 10 16 6 0 10 5 10 10 0 6 -7 10 -15 10 -8 0 -15 -4 -15 -10 0 -5 -5
-10 -11 -10 -14 0 -39 25 -39 39 0 6 -9 11 -20 11 -11 0 -20 -7 -20 -15 0 -8
7 -15 15 -15 8 0 15 -7 15 -16 0 -10 -6 -14 -14 -11 -7 3 -18 1 -24 -5 -8 -8
-13 -7 -18 6 -5 13 -13 16 -35 11 -23 -5 -29 -3 -29 10 0 10 5 15 13 12 10 -4
13 2 9 18 -4 25 -38 40 -49 23 -3 -7 -1 -8 5 -4 8 5 12 0 12 -13 0 -30 -23
-26 -38 7 -10 23 -10 29 3 38 17 13 19 42 5 64 -7 12 -13 12 -27 4 -23 -14
-29 -44 -9 -44 27 0 28 -20 0 -30 -20 -8 -30 -8 -38 1 -8 8 -8 13 1 16 19 7
16 43 -3 43 -10 0 -14 -6 -11 -15 8 -19 -12 -30 -26 -16 -9 9 -7 11 8 6 15 -4
14 -3 -3 6 -18 10 -22 18 -17 38 4 14 11 28 16 29 15 6 10 42 -6 42 -8 0 -15
-9 -15 -20 0 -25 -25 -27 -34 -2 -3 9 -9 23 -12 30 -4 10 4 11 38 6 23 -4 40
-3 35 1 -4 5 0 16 9 26 23 25 -1 34 -26 9 -11 -11 -23 -20 -27 -20 -13 0 -32
50 -28 72 4 19 3 20 -14 4 -21 -19 -42 -3 -22 17 16 16 14 37 -4 37 -9 0 -15
-9 -15 -21 0 -12 -5 -19 -12 -16 -8 2 -12 17 -10 33 2 22 0 26 -8 14 -8 -13
-10 -13 -10 1 0 8 7 24 15 35 20 26 19 44 -4 44 -10 0 -18 -6 -17 -12 0 -7 -3
-13 -9 -13 -5 0 -9 6 -9 13 1 6 -4 12 -12 12 -17 0 -18 16 -2 26 6 4 14 2 16
-4 6 -18 37 -15 62 6 l22 17 -21 19 c-21 19 -41 14 -41 -10 0 -8 -6 -14 -12
-14 -16 0 -39 48 -27 56 12 7 31 -5 24 -17 -3 -5 1 -6 9 -3 20 8 21 44 1 44
-21 0 -19 17 5 42 11 12 20 28 20 35 0 21 -27 15 -33 -8 -3 -12 -10 -18 -17
-14 -6 4 -9 13 -6 20 2 7 -2 16 -11 20 -13 4 -14 8 -5 17 9 9 15 9 24 0 16
-16 34 -15 64 5 l26 17 -23 17 c-25 18 -49 15 -49 -7 0 -8 -7 -14 -16 -14 -10
0 -14 6 -11 14 3 8 -1 17 -10 21 -12 4 -13 9 -5 17 8 8 15 8 25 -1 19 -15 47
-4 40 15 -3 9 -12 13 -19 10 -16 -6 -28 10 -19 24 5 8 11 8 20 0 11 -9 12 -7
8 9 -4 15 -1 21 10 21 9 0 19 -4 22 -10 10 -17 51 -11 69 9 17 19 17 20 -3 30
-31 17 -51 13 -51 -9 0 -29 -19 -25 -31 7 -10 27 2 55 15 34 8 -12 46 -15 46
-3 0 13 -15 27 -29 27 -8 0 -16 6 -19 14 -3 10 1 12 17 8 11 -3 24 0 28 5 3 7
1 8 -5 4 -7 -4 -12 -2 -12 5 0 8 16 9 57 4 51 -6 55 -5 40 9 -8 9 -20 16 -26
16 -6 0 -11 7 -11 16 0 10 6 14 15 10 20 -7 19 0 -6 36 -17 23 -19 32 -9 41
10 9 14 9 17 0 6 -17 43 -16 67 2 19 14 19 16 2 34 -19 21 -46 18 -46 -5 0
-23 -24 -16 -37 11 -13 29 0 43 22 25 20 -16 46 -5 39 15 -4 9 -13 14 -20 11
-16 -6 -28 10 -19 24 5 8 11 8 20 0 11 -9 12 -7 8 9 -6 24 10 28 29 8 14 -16
45 -11 70 11 17 14 17 16 0 28 -26 20 -52 17 -52 -6 0 -29 -19 -25 -31 7 -10
27 2 55 15 34 8 -12 46 -15 46 -3 0 13 -15 27 -29 27 -8 0 -16 6 -19 14 -3 10
1 12 16 9 15 -4 19 -2 15 9 -4 11 2 14 28 11 19 -2 33 -8 32 -14 -2 -9 4 -9
21 -1 27 13 23 37 -5 37 -10 0 -19 7 -19 15 0 8 3 15 8 15 13 -1 42 -27 42
-38 0 -20 42 -43 57 -30 14 11 18 42 4 34 -4 -3 -16 3 -26 14 -17 19 -17 20
15 34 21 9 28 15 19 19 -10 4 -11 6 -1 6 7 1 15 -6 18 -14 8 -19 21 -19 21 0
0 8 -4 12 -8 10 -10 -7 -20 38 -10 48 5 5 12 4 15 -2 4 -6 16 -11 28 -11 14 0
18 5 14 16 -3 9 -6 17 -6 19 0 2 -9 1 -20 -2 -14 -4 -20 0 -20 12 0 12 6 16
20 12 11 -3 18 -1 14 4 -3 5 -3 13 0 18 8 13 62 -4 58 -18 -1 -8 4 -8 18 1 26
16 26 38 0 38 -11 0 -20 7 -20 15 0 26 16 17 55 -31 36 -44 38 -45 52 -24 19
26 13 55 -11 55 -11 0 -21 6 -24 14 -3 10 1 12 15 9 14 -4 20 -1 19 10 0 8 5
17 13 20 10 3 12 -3 6 -27 -6 -27 -4 -31 14 -31 14 0 21 6 21 20 0 20 25 28
32 10 2 -5 18 -12 36 -16 25 -5 32 -3 32 9 0 9 -9 17 -20 19 -22 3 -24 24 -2
22 6 -1 12 4 12 12 0 8 7 14 15 14 17 0 20 -16 5 -25 -16 -10 -12 -21 16 -55
26 -30 27 -31 41 -10 17 23 9 61 -12 54 -15 -6 -29 12 -20 26 5 8 11 8 20 0
10 -8 13 -7 11 6 0 9 5 19 13 22 10 3 12 -2 7 -22 -3 -14 -2 -34 3 -44 6 -12
5 -25 -5 -42 -17 -33 -18 -60 0 -60 9 0 12 7 9 19 -3 13 2 20 20 23 22 4 24 2
20 -29 -2 -24 1 -33 11 -33 23 0 28 17 11 33 -16 17 -20 32 -6 23 4 -3 5 9 2
26 -4 17 -12 33 -19 34 -7 1 -8 0 -2 -3 13 -6 13 -33 0 -33 -5 0 -14 9 -20 19
-9 17 -5 21 26 31 42 14 50 9 34 -19 -8 -15 -8 -21 0 -21 6 0 10 -8 8 -17 -3
-24 10 -43 30 -43 12 0 13 3 4 12 -17 17 -15 38 3 38 8 0 15 5 15 11 0 6 -7 9
-15 6 -17 -7 -29 8 -20 23 5 8 11 8 20 0 11 -9 12 -7 8 9 -5 20 -2 21 46 16
40 -4 51 -2 51 9 0 8 -9 16 -20 18 -31 5 -29 22 3 25 16 1 25 -2 21 -8 -15
-24 45 -81 99 -93 26 -6 27 -5 27 32 0 26 -7 45 -20 57 -21 19 -50 14 -50 -10
0 -8 -7 -15 -16 -15 -9 0 -14 6 -11 13 2 6 -8 20 -22 29 l-26 18 25 0 c15 0
31 -5 36 -10 15 -15 44 -2 37 16 -3 9 -12 13 -19 10 -16 -6 -28 10 -19 24 5 8
11 8 20 0 11 -9 12 -7 8 9 -4 15 -1 21 12 21 13 0 15 -6 10 -28 -4 -20 0 -36
15 -55 26 -33 34 -34 48 -3 9 21 8 29 -9 48 -11 13 -18 17 -14 11 3 -7 1 -13
-4 -13 -6 0 -11 7 -11 15 0 8 7 15 15 15 8 0 15 5 15 10 0 6 7 10 15 10 17 0
20 -16 5 -25 -14 -9 -2 -31 19 -31 12 0 17 6 14 17 -5 19 16 37 26 22 3 -5 14
-12 24 -16 10 -4 15 -11 12 -17 -4 -6 4 -6 19 1 28 13 25 39 -5 39 -21 0 -25
15 -7 26 6 4 8 3 5 -3 -3 -5 0 -10 7 -10 8 0 11 8 8 19 -3 12 1 18 12 18 14 0
16 -6 11 -33 -5 -26 -2 -37 18 -55 l25 -23 15 22 c19 26 6 62 -18 53 -9 -4
-15 0 -15 10 0 9 7 16 15 16 8 0 15 5 15 10 0 6 7 10 15 10 16 0 20 -16 6 -24
-11 -7 -2 -46 10 -46 5 0 0 -15 -11 -32 -26 -42 -26 -108 0 -157 10 -21 16
-42 12 -46 -4 -4 5 -1 21 6 30 14 36 28 11 25 -9 0 -19 5 -22 13 -3 10 1 13
15 9 15 -4 20 -1 19 11 -1 12 6 15 27 13 25 -3 27 -1 27 32 0 25 -6 38 -20 46
-23 12 -40 6 -40 -16 0 -24 -24 -16 -37 13 -14 30 -11 38 12 29 9 -3 13 -11
10 -17 -4 -6 2 -5 14 3 26 16 27 38 2 38 -18 0 -35 33 -23 45 4 4 7 14 7 22 0
9 6 18 14 21 10 3 12 -1 9 -15 -4 -16 -1 -19 13 -16 14 4 19 0 19 -16 0 -12
-6 -21 -15 -21 -8 0 -15 5 -15 10 0 6 -5 10 -11 10 -6 0 8 -23 32 -51 40 -48
44 -50 56 -33 19 26 13 59 -11 59 -11 0 -21 6 -24 14 -3 10 1 12 15 9 13 -4
20 -1 19 8 0 7 4 13 9 13 6 0 10 -9 11 -22 1 -46 2 -47 39 -31 41 17 55 18 55
3 0 -5 -6 -7 -12 -3 -10 6 -10 4 0 -8 7 -9 10 -27 7 -40 -4 -14 0 -31 10 -43
8 -11 14 -15 14 -10 -5 23 14 65 28 65 9 0 13 -6 10 -14 -7 -17 23 -46 46 -46
9 0 17 6 17 14 0 21 -19 30 -26 12 -5 -12 -9 -13 -19 -3 -16 15 1 41 22 33 7
-3 13 1 13 9 0 8 4 15 9 15 15 0 23 -18 11 -25 -16 -10 -12 -21 17 -55 l26
-32 14 25 c15 29 8 58 -12 51 -16 -6 -29 12 -20 26 5 8 11 8 20 0 10 -8 13 -7
11 6 0 9 5 19 13 22 10 3 12 -3 7 -24 -3 -16 -2 -35 3 -43 6 -10 5 -24 -3 -40
-26 -51 -28 -96 -6 -147 12 -27 23 -50 25 -53 2 -2 25 10 50 25 40 26 45 33
45 65 0 22 -7 42 -18 52 -26 23 -52 22 -52 -3 0 -29 -19 -25 -31 7 -10 27 2
55 15 34 4 -6 16 -11 28 -11 14 0 18 5 14 16 -3 9 -6 17 -6 20 0 2 -6 1 -14
-2 -17 -7 -41 32 -26 41 5 3 10 15 10 26 0 10 7 19 15 19 18 0 19 -12 3 -29
-11 -10 -7 -11 16 -5 26 6 28 5 22 -12 -18 -42 -17 -53 3 -73 26 -26 37 -26
51 -2 12 24 2 54 -16 47 -16 -6 -28 10 -19 24 5 8 11 8 20 0 11 -9 12 -7 8 9
-4 15 -1 21 11 21 14 0 16 -6 10 -36 -6 -32 -4 -36 12 -32 13 3 18 11 17 26
-2 15 3 22 13 22 12 0 15 -6 11 -21 -4 -16 -3 -18 9 -8 11 9 16 6 24 -16 10
-27 6 -45 -11 -45 -5 0 -9 9 -9 21 0 32 -40 20 -67 -20 -27 -39 -31 -101 -8
-101 8 0 15 5 15 10 0 6 7 10 15 10 8 0 15 -5 15 -11 0 -5 4 -8 9 -5 5 4 11 3
14 -1 2 -5 2 -3 1 4 -2 7 1 15 6 18 6 4 10 17 10 31 0 17 -5 24 -20 24 -11 0
-20 7 -20 15 0 22 16 18 38 -10 22 -27 53 -25 49 3 -1 10 3 17 8 17 6 0 9 -5
9 -11 -1 -6 7 -9 17 -7 13 4 19 0 19 -12 0 -13 -6 -16 -22 -12 -24 6 -63 -15
-51 -26 3 -4 2 -7 -4 -7 -6 0 -14 -7 -17 -16 -5 -14 -4 -15 8 -5 11 9 14 8 12
-6 0 -9 7 -19 17 -21 11 -2 17 3 17 15 0 20 18 43 33 43 5 0 7 -8 4 -19 -3
-14 0 -17 14 -14 21 6 27 -21 8 -32 -6 -4 -8 -13 -5 -20 3 -8 2 -16 -2 -18 -4
-2 -1 -2 6 -1 16 4 16 -13 0 -19 -10 -3 -10 -7 1 -20 18 -22 38 -21 51 2 12
24 2 54 -16 47 -16 -6 -28 10 -19 24 5 8 11 8 19 1 14 -11 26 -5 26 13 0 6 -5
4 -11 -4 -7 -10 -9 -11 -7 -2 5 21 23 9 20 -13 -1 -10 0 -26 3 -33 8 -22 37 6
30 29 -5 14 -1 19 10 19 12 0 16 -6 12 -19 -3 -14 0 -17 13 -14 12 3 19 -3 23
-19 10 -34 9 -38 -8 -38 -8 0 -15 9 -15 20 0 22 -12 25 -42 9 -23 -13 -48 -67
-48 -107 0 -26 2 -28 38 -24 41 4 62 24 62 59 0 16 -6 23 -20 23 -11 0 -20 7
-20 15 0 23 16 18 39 -11 24 -30 56 -27 46 5 -6 20 9 38 19 23 9 -15 -6 -51
-23 -57 -25 -7 -50 -57 -33 -62 6 -3 10 -9 7 -13 -3 -5 9 -5 27 1 18 5 34 9
35 9 2 0 2 10 0 21 -1 12 4 24 12 27 10 3 12 -1 9 -16 -4 -13 0 -23 9 -26 8
-3 11 -1 8 4 -3 6 -1 10 4 10 6 0 11 -7 11 -15 0 -11 -8 -15 -22 -13 -24 3
-28 -1 -28 -27 0 -11 7 -14 25 -9 19 5 25 2 25 -10 0 -9 -5 -16 -11 -16 -6 0
-8 -9 -4 -20 4 -11 2 -20 -4 -20 -13 0 -14 -10 -3 -28 14 -21 44 -3 37 22 -5
15 -4 17 3 7 8 -11 10 -11 15 0 4 11 6 11 6 1 1 -7 -10 -24 -24 -38 -14 -14
-32 -36 -41 -48 -14 -22 -13 -24 11 -30 39 -10 65 1 62 26 -1 11 4 23 12 26
10 3 12 -1 8 -17 -4 -18 -2 -21 14 -16 14 5 19 2 19 -10 0 -13 -6 -16 -22 -12
-13 3 -31 0 -41 -7 -14 -11 -15 -15 -3 -25 7 -6 23 -10 34 -9 11 2 21 -1 21
-7 1 -12 -41 -13 -50 -2 -3 5 -9 -1 -12 -12 -4 -17 -2 -19 13 -11 19 10 30 4
30 -17 0 -10 -9 -12 -34 -8 -29 6 -36 3 -60 -27 l-26 -33 28 -12 c35 -14 66 0
57 28 -5 14 -2 19 10 19 13 0 16 -6 12 -21 -4 -16 -3 -18 8 -9 9 8 15 8 20 0
10 -17 -3 -28 -29 -23 -30 6 -43 -14 -23 -35 13 -12 19 -13 31 -3 10 8 16 9
21 1 10 -16 -4 -30 -22 -23 -11 4 -14 3 -9 -5 4 -7 2 -12 -6 -12 -10 0 -9 -3
2 -11 13 -9 12 -10 -2 -5 -10 3 -18 1 -18 -4 0 -6 -7 -10 -16 -10 -9 0 -14 6
-11 13 2 6 9 12 15 12 22 0 25 16 6 36 -28 32 -66 45 -117 41 l-44 -4 10 -40
c8 -31 17 -43 40 -53 37 -16 70 -1 61 27 -3 12 0 18 10 18 23 0 20 -17 -8 -45
-20 -20 -22 -26 -10 -36 8 -6 14 -16 14 -22 0 -6 -10 -1 -22 11 -13 11 -35 25
-50 31 -27 10 -28 10 -28 -25 0 -22 9 -47 25 -68 14 -18 22 -36 18 -39 -13
-14 -23 -6 -23 17 0 13 -7 29 -16 36 -12 11 -18 11 -30 -2 -13 -13 -14 -19 -3
-36 14 -23 8 -38 -11 -27 -6 4 -9 13 -6 21 6 16 -10 19 -19 4 -9 -15 -25 -12
-25 5 0 8 8 15 19 15 10 0 25 10 34 23 42 64 24 144 -51 220 -39 39 -60 51
-127 72 l-81 26 -120 -19 -119 -18 -135 -100 -135 -99 -105 -210 -105 -210 3
-377 2 -378 650 0 650 0 0 1430 0 1430 -1430 0 -1430 0 0 -1430z m1828 752 c2
-7 -3 -12 -12 -12 -9 0 -16 7 -16 16 0 17 22 14 28 -4z m-780 -124 c-6 -18
-28 -21 -28 -4 0 9 7 16 16 16 9 0 14 -5 12 -12z m-350 -50 c-6 -18 -28 -21
-28 -4 0 9 7 16 16 16 9 0 14 -5 12 -12z m-238 -203 c0 -8 -7 -15 -15 -15 -8
0 -15 7 -15 15 0 8 7 15 15 15 8 0 15 -7 15 -15z m2200 -30 c0 -8 -7 -15 -15
-15 -16 0 -20 12 -8 23 11 12 23 8 23 -8z m-2165 -35 c3 -6 -1 -7 -9 -4 -18 7
-21 14 -7 14 6 0 13 -4 16 -10z m2265 -193 c0 -7 -4 -6 -10 3 -8 12 -10 12
-10 1 0 -8 -3 -12 -6 -8 -9 9 6 28 17 22 5 -4 9 -12 9 -18z m-50 -412 c0 -8
-7 -15 -15 -15 -16 0 -20 12 -8 23 11 12 23 8 23 -8z m-20 -40 c0 -8 -7 -15
-15 -15 -8 0 -15 7 -15 15 0 8 7 15 15 15 8 0 15 -7 15 -15z m-52 -13 c2 -7
-3 -12 -12 -12 -9 0 -16 7 -16 16 0 17 22 14 28 -4z"/>
<path d="M1503 2130 c-5 -19 -33 -29 -33 -11 0 5 -7 11 -15 15 -22 8 -18 -9
11 -43 28 -34 84 -55 96 -37 14 20 8 63 -10 79 -25 23 -43 21 -49 -3z"/>
<path d="M1780 2124 c-21 -21 -22 -27 -10 -35 13 -9 13 -12 -2 -21 -14 -11
-15 -14 -1 -35 21 -31 57 -30 72 3 6 15 9 29 6 32 -3 3 -5 1 -5 -5 0 -15 -42
-11 -48 5 -2 6 1 12 7 12 6 0 8 6 5 14 -3 8 3 19 16 26 11 6 18 15 15 21 -10
16 -31 10 -55 -17z"/>
<path d="M1413 2123 c-21 -7 -15 -33 7 -33 11 0 20 6 20 14 0 18 -11 25 -27
19z"/>
<path d="M1826 2083 c-6 -14 -5 -15 5 -6 7 7 10 15 7 18 -3 3 -9 -2 -12 -12z"/>
<path d="M2100 2086 c0 -2 7 -7 16 -10 8 -3 12 -2 9 4 -6 10 -25 14 -25 6z"/>
<path d="M1413 2065 c8 -19 -12 -30 -26 -16 -9 9 -7 11 8 6 16 -6 17 -5 5 4
-22 16 -30 13 -30 -9 0 -11 6 -20 13 -20 15 0 38 -48 26 -56 -12 -7 -31 5 -24
17 4 5 1 9 -5 9 -12 0 -8 -18 16 -75 15 -37 122 -132 134 -119 4 5 21 34 38
64 l30 55 -18 45 c-14 35 -25 47 -51 56 -24 8 -38 8 -51 0 -22 -13 -23 -42 -3
-50 24 -9 18 -23 -12 -29 -34 -7 -49 5 -28 23 22 19 19 43 -5 37 -30 -8 -24 0
15 19 40 19 43 29 16 44 -29 15 -54 13 -48 -5z"/>
<path d="M1960 2036 c0 -8 5 -18 10 -21 20 -12 10 -27 -14 -21 -39 10 -40 -10
-2 -28 55 -26 66 -22 66 24 0 29 -5 42 -19 50 -27 14 -41 13 -41 -4z"/>
<path d="M1751 2024 c0 -11 3 -14 6 -6 3 7 2 16 -1 19 -3 4 -6 -2 -5 -13z"/>
<path d="M1900 2026 c0 -8 5 -18 10 -21 6 -3 10 1 10 9 0 8 -4 18 -10 21 -5 3
-10 -1 -10 -9z"/>
<path d="M1145 2020 c-4 -7 -1 -16 6 -21 17 -10 26 8 11 23 -6 6 -12 6 -17 -2z"/>
<path d="M1200 2015 c0 -8 6 -15 14 -15 8 0 16 -6 19 -12 4 -10 7 -10 18 0 12
11 11 16 -5 28 -26 18 -46 18 -46 -1z"/>
<path d="M1868 2022 c-30 -6 -28 -28 3 -30 16 -1 29 1 29 5 0 17 -16 29 -32
25z"/>
<path d="M1693 2003 c-15 -5 -17 -23 -4 -23 5 0 11 7 15 15 3 8 4 15 3 14 -1
0 -8 -3 -14 -6z"/>
<path d="M1256 1971 c-26 -29 -18 -48 17 -42 15 2 6 -19 -13 -31 -11 -7 -20
-18 -20 -25 0 -15 46 -18 54 -4 3 5 24 7 46 4 22 -3 40 -3 40 -1 0 7 -40 98
-43 98 -1 0 -16 4 -34 9 -25 7 -35 6 -47 -8z m53 -41 c6 0 11 -7 11 -15 0 -26
-27 -16 -35 12 -5 21 -8 24 -16 12 -5 -7 -9 -9 -9 -3 0 20 14 25 26 10 6 -9
16 -16 23 -16z"/>
<path d="M871 1964 c16 -20 -9 -28 -28 -8 -20 20 -29 4 -14 -24 11 -21 68 -52
95 -52 12 0 16 10 16 38 0 30 -5 41 -22 50 -32 15 -61 13 -47 -4z"/>
<path d="M1740 1971 c0 -5 -9 -11 -20 -14 -30 -8 -24 -23 14 -41 50 -24 63
-21 69 17 2 17 3 35 0 40 -6 10 -63 9 -63 -2z"/>
<path d="M1830 1956 c0 -19 7 -26 30 -31 16 -3 36 -2 45 2 14 8 13 11 -5 28
-20 18 -21 18 -34 0 -9 -12 -15 -15 -20 -7 -4 7 -4 17 -1 22 3 6 1 10 -4 10
-6 0 -11 -11 -11 -24z"/>
<path d="M1912 1964 c10 -10 20 -16 22 -13 3 3 -5 11 -17 18 -21 13 -21 12 -5
-5z"/>
<path d="M1440 1960 c-18 -12 -2 -12 25 0 13 6 15 9 5 9 -8 0 -22 -4 -30 -9z"/>
<path d="M787 1952 c-10 -2 -16 -9 -14 -15 4 -14 47 -23 47 -10 0 17 -16 29
-33 25z"/>
<path d="M600 1910 c0 -34 60 -80 106 -80 23 0 19 77 -5 90 -28 15 -38 13 -44
-10 -3 -11 -10 -20 -15 -20 -5 0 -12 9 -15 20 -3 11 -10 20 -16 20 -6 0 -11
-9 -11 -20z"/>
<path d="M1126 1915 c-3 -8 -1 -15 3 -15 5 0 11 7 15 15 3 8 1 15 -3 15 -5 0
-11 -7 -15 -15z"/>
<path d="M1656 1914 c-38 -37 -3 -60 42 -28 22 15 22 17 5 30 -23 17 -28 17
-47 -2z"/>
<path d="M1938 1924 c6 -3 12 -12 12 -20 0 -17 -26 -19 -33 -1 -3 7 -6 5 -6
-5 -1 -10 6 -18 14 -18 15 0 22 -30 8 -30 -5 0 -18 -3 -30 -6 -17 -5 -23 -2
-23 10 0 9 5 16 10 16 6 0 10 9 10 20 0 11 -7 20 -15 20 -8 0 -15 -9 -15 -20
0 -27 -26 -25 -33 2 -4 12 -9 20 -12 16 -3 -3 5 -30 18 -59 16 -37 41 -69 81
-103 31 -26 58 -47 60 -45 2 2 18 32 36 65 l33 62 -19 48 c-20 48 -22 49 -65
51 -24 1 -38 0 -31 -3z"/>
<path d="M1190 1895 c24 -25 42 -27 22 -2 -7 8 -9 17 -5 20 3 4 -4 7 -17 7
l-23 0 23 -25z"/>
<path d="M751 1888 c-1 -21 5 -28 28 -33 29 -6 71 8 71 23 0 14 -24 32 -42 32
-10 0 -18 -6 -18 -14 0 -26 -20 -28 -29 -4 -10 23 -10 23 -10 -4z"/>
<path d="M982 1891 c-16 -9 43 -81 67 -81 21 0 51 30 51 52 0 9 -6 21 -14 27
-16 14 -46 4 -46 -15 0 -8 -7 -14 -15 -14 -8 0 -15 5 -15 11 0 5 5 7 10 4 6
-3 10 -4 10 -1 0 11 -37 24 -48 17z"/>
<path d="M1140 1881 c0 -5 -3 -16 -6 -25 -8 -21 38 -22 55 -2 10 12 8 17 -8
25 -24 13 -41 14 -41 2z"/>
<path d="M1707 1872 c-21 -23 -22 -42 -2 -42 24 0 18 -27 -7 -34 -34 -9 -38
-8 -38 9 0 8 5 15 10 15 6 0 10 9 10 20 0 11 -7 20 -15 20 -9 0 -15 -9 -15
-21 0 -16 -4 -20 -17 -14 -12 4 -8 -5 11 -24 34 -35 87 -47 145 -31 22 6 41
13 41 15 0 3 -7 22 -16 44 -11 28 -24 43 -46 50 -40 14 -42 14 -61 -7z"/>
<path d="M2225 1883 c-46 -10 -51 -14 -32 -24 9 -6 15 -15 11 -20 -3 -6 3 -5
15 3 12 7 21 19 21 26 0 8 12 -1 26 -18 26 -31 27 -31 41 -10 29 41 -6 60 -82
43z"/>
<path d="M540 1871 c0 -6 4 -13 10 -16 6 -3 7 1 4 9 -7 18 -14 21 -14 7z"/>
<path d="M2372 1866 c7 -8 15 -12 17 -11 5 6 -10 25 -20 25 -5 0 -4 -6 3 -14z"/>
<path d="M847 1852 c-21 -23 -22 -42 -2 -42 24 0 18 -27 -7 -34 -34 -9 -38 -8
-38 9 0 8 5 15 10 15 6 0 10 9 10 20 0 11 -7 20 -15 20 -8 0 -15 -9 -15 -20 0
-26 -16 -26 -30 1 -21 39 -21 12 0 -37 30 -69 114 -153 95 -95 -6 21 10 38 20
21 7 -12 45 -14 45 -2 0 13 -15 27 -29 27 -8 0 -16 6 -19 14 -3 10 1 12 16 9
15 -4 19 -2 15 8 -3 9 2 14 16 14 19 0 26 -15 22 -42 0 -4 6 -5 15 -1 13 5 13
7 2 14 -10 7 -10 9 0 9 19 0 14 21 -7 27 -17 4 -32 29 -35 58 -1 10 -23 23
-42 24 -6 1 -18 -7 -27 -17z"/>
<path d="M971 1854 c0 -11 3 -14 6 -6 3 7 2 16 -1 19 -3 4 -6 -2 -5 -13z"/>
<path d="M2327 1842 c-27 -52 -28 -103 -4 -159 l23 -52 47 32 c41 28 46 36 47
68 0 39 -18 62 -51 64 -13 1 -19 -5 -19 -18 0 -11 -5 -17 -12 -14 -7 2 -12 10
-10 16 1 6 -2 11 -8 11 -5 0 -10 7 -10 16 0 11 6 15 20 11 29 -7 34 9 11 32
l-21 21 -13 -28z"/>
<path d="M570 1844 c0 -8 7 -22 15 -31 14 -14 18 -14 35 2 19 17 19 19 2 31
-24 18 -52 17 -52 -2z"/>
<path d="M1220 1840 c0 -8 25 -20 41 -20 20 0 7 18 -16 22 -14 3 -25 2 -25 -2z"/>
<path d="M1350 1829 c0 -5 -8 -9 -17 -8 -35 3 -43 -1 -43 -22 0 -17 4 -20 24
-15 14 3 28 1 31 -5 12 -18 -3 -22 -36 -10 -37 13 -42 11 -33 -13 4 -11 10
-13 18 -7 12 10 56 -3 56 -17 0 -4 -6 -14 -12 -21 -10 -11 -10 -13 0 -7 6 4
12 2 12 -3 0 -17 -27 -13 -34 4 -3 8 -10 15 -16 15 -16 0 -12 -27 5 -34 8 -3
15 -9 15 -15 0 -12 -52 -21 -65 -12 -18 14 -54 20 -48 7 16 -36 79 -70 171
-92 53 -13 100 -24 105 -24 4 0 7 47 7 103 l0 104 -49 41 c-47 40 -91 55 -91
31z"/>
<path d="M2160 1822 c0 -31 28 -60 75 -75 l45 -16 0 44 c0 34 -5 47 -19 55
-28 15 -38 13 -44 -10 -3 -11 -11 -20 -19 -19 -10 0 -10 2 0 6 10 4 9 8 -5 19
-24 18 -33 17 -33 -4z"/>
<path d="M992 1806 c6 -14 15 -23 19 -20 15 9 10 23 -11 34 -18 10 -19 9 -8
-14z"/>
<path d="M1596 1813 c-6 -14 -5 -15 5 -6 7 7 10 15 7 18 -3 3 -9 -2 -12 -12z"/>
<path d="M633 1808 c-19 -25 -23 -48 -8 -48 24 0 17 -27 -7 -34 -34 -9 -38 -8
-38 9 0 8 5 15 12 15 9 0 9 3 1 11 -9 9 -16 7 -29 -6 -17 -16 -16 -18 7 -35
13 -10 38 -21 55 -25 36 -6 112 3 119 16 10 16 -27 88 -48 94 -12 4 -29 9 -38
11 -9 2 -21 -1 -26 -8z"/>
<path d="M1177 1814 c-12 -12 -8 -24 8 -24 8 0 15 -7 15 -15 0 -8 -6 -15 -14
-15 -8 0 -18 -4 -21 -10 -3 -6 4 -10 18 -10 29 0 84 47 70 61 -12 12 -67 22
-76 13z"/>
<path d="M2122 1812 c-19 -3 -21 -6 -11 -18 12 -15 49 -20 49 -6 -1 17 -16 27
-38 24z"/>
<path d="M1130 1795 c0 -8 7 -15 15 -15 8 0 15 7 15 15 0 8 -7 15 -15 15 -8 0
-15 -7 -15 -15z"/>
<path d="M1597 1792 c-9 -2 -15 -8 -11 -13 3 -6 -3 -18 -15 -28 -20 -18 -20
-18 13 -19 21 -1 40 6 50 17 15 16 15 19 -1 33 -10 8 -26 13 -36 10z"/>
<path d="M1049 1759 c-13 -10 -24 -28 -24 -41 0 -14 -6 -23 -15 -23 -25 0 -17
-29 10 -35 20 -5 104 6 118 15 7 5 -38 93 -50 98 -8 2 -25 -3 -39 -14z"/>
<path d="M2058 1731 c-23 -42 -28 -66 -34 -166 l-7 -116 49 6 c27 4 78 12 113
18 l63 12 36 65 35 65 -18 48 c-15 39 -23 48 -53 57 -29 8 -40 6 -54 -7 -22
-20 -24 -43 -3 -43 15 0 22 -30 8 -30 -5 0 -18 -3 -30 -6 -17 -5 -23 -2 -23
10 0 9 5 16 10 16 6 0 10 9 10 20 0 11 -7 20 -15 20 -8 0 -15 -9 -15 -20 0
-25 -16 -26 -30 -1 -18 34 -12 42 23 36 43 -8 78 15 58 39 -19 23 -51 21 -51
-4 0 -28 -19 -25 -30 5 -5 14 -11 25 -12 25 -2 0 -15 -22 -30 -49z"/>
<path d="M1238 1746 c-22 -16 -24 -46 -3 -46 8 0 15 -8 15 -17 0 -16 1 -16 17
0 15 15 15 20 2 46 -12 26 -16 28 -31 17z"/>
<path d="M1649 1738 c-9 -7 -19 -23 -21 -34 -4 -17 -2 -20 13 -17 11 3 19 0
19 -7 0 -6 -9 -14 -20 -17 -23 -6 -27 -23 -5 -23 25 0 65 31 81 62 9 17 14 32
12 34 -13 12 -65 14 -79 2z"/>
<path d="M1773 1733 c-25 -5 -48 -53 -38 -82 7 -22 29 -28 40 -11 11 17 23 11
27 -15 6 -31 -11 -44 -27 -22 -15 21 -35 22 -35 2 0 -8 7 -15 15 -15 24 0 18
-27 -7 -34 -34 -9 -38 -8 -38 9 0 9 -6 12 -17 9 -15 -5 -16 -4 -3 5 8 6 10 11
4 11 -6 0 -17 -7 -24 -15 -9 -11 -16 -13 -24 -5 -7 7 -6 14 2 22 17 17 15 38
-4 38 -8 0 -13 -4 -10 -9 3 -5 -1 -14 -8 -20 -15 -13 -32 1 -22 18 4 5 1 11
-6 13 -8 3 -7 14 5 38 22 43 21 50 -3 50 -12 0 -17 -5 -14 -14 3 -8 1 -17 -5
-21 -6 -3 -11 -37 -11 -75 0 -64 5 -80 61 -202 34 -73 63 -134 64 -136 2 -2
57 35 122 83 132 97 130 94 132 221 l1 81 -49 41 c-49 41 -68 47 -128 35z"/>
<path d="M366 1723 c-21 -21 27 -78 77 -89 31 -7 49 2 28 15 -11 7 -10 12 1
30 11 20 11 24 -6 37 -28 20 -46 18 -46 -6 0 -11 -7 -20 -15 -20 -8 0 -15 6
-15 14 0 17 -14 28 -24 19z"/>
<path d="M522 1718 c-16 -16 -15 -58 1 -58 8 0 21 8 31 18 15 18 15 20 -2 35
-14 13 -21 14 -30 5z"/>
<path d="M1180 1705 c0 -18 4 -23 15 -19 8 4 15 15 15 25 0 10 -7 19 -15 19
-9 0 -15 -9 -15 -25z"/>
<path d="M882 1675 c-7 -9 -8 -15 -2 -15 5 0 9 -5 8 -11 -6 -24 19 -18 30 6 7
14 12 28 12 30 0 11 -36 3 -48 -10z"/>
<path d="M569 1668 c-9 -7 -19 -23 -21 -34 -4 -17 -2 -20 13 -17 11 3 19 0 19
-7 0 -6 -9 -14 -20 -17 -25 -7 -26 -23 -2 -23 26 0 60 27 78 62 18 35 18 34
-21 42 -19 4 -37 2 -46 -6z"/>
<path d="M2510 1668 c0 -7 -3 -22 -6 -33 -3 -13 3 -32 17 -49 l23 -29 17 22
c22 27 14 64 -12 56 -14 -5 -19 -1 -19 10 0 12 6 16 19 12 14 -3 18 -1 14 9
-6 17 -53 19 -53 2z"/>
<path d="M693 1663 c-25 -5 -48 -53 -38 -82 7 -22 29 -28 40 -11 11 17 23 11
27 -15 6 -31 -11 -44 -27 -22 -15 21 -35 22 -35 2 0 -8 7 -15 15 -15 24 0 18
-27 -7 -34 -34 -9 -38 -8 -38 9 0 9 -6 12 -17 9 -16 -5 -16 -4 -3 6 13 10 13
11 0 7 -27 -7 -21 -32 17 -61 27 -22 63 -36 132 -52 53 -11 97 -20 99 -19 1 1
5 47 8 101 l5 99 -50 43 c-49 42 -68 47 -128 35z"/>
<path d="M2414 1636 c-39 -27 -59 -50 -87 -104 l-37 -70 76 -26 77 -26 46 33
c36 26 47 40 49 66 6 54 -41 90 -74 57 -11 -11 -11 -16 -1 -19 7 -4 6 -6 -4
-6 -9 -1 -19 9 -23 22 -9 33 -8 37 9 37 8 0 15 -5 15 -11 0 -5 -5 -7 -12 -3
-6 4 -8 3 -5 -4 5 -7 15 -7 32 1 29 14 28 31 -3 35 -25 4 -31 32 -7 32 8 0 15
5 15 10 0 16 -13 12 -66 -24z"/>
<path d="M1684 1639 c-18 -20 -18 -21 6 -40 31 -23 40 -24 40 -1 0 26 -11 62
-20 62 -4 0 -15 -9 -26 -21z"/>
<path d="M2577 1654 c-3 -4 -2 -15 4 -26 8 -15 13 -17 24 -8 8 6 11 18 8 26
-5 14 -25 19 -36 8z"/>
<path d="M510 1624 c0 -22 2 -25 15 -14 8 7 15 19 15 26 0 8 -7 14 -15 14 -10
0 -15 -10 -15 -26z"/>
<path d="M960 1625 c-10 -18 -10 -28 -2 -38 9 -10 9 -16 0 -25 -19 -19 0 -26
25 -9 22 14 55 73 46 81 -2 2 -16 6 -30 9 -21 5 -28 2 -39 -18z"/>
<path d="M1084 1629 c-42 -12 -61 -53 -39 -85 18 -27 35 -31 35 -8 0 28 25 9
28 -22 2 -22 0 -26 -7 -14 -8 11 -11 12 -11 2 0 -10 -5 -9 -17 4 -13 12 -18
13 -21 4 -3 -7 3 -17 12 -22 23 -13 20 -28 -6 -28 -12 0 -19 -3 -16 -6 4 -3
27 -2 53 1 34 6 61 19 102 53 l56 46 -49 43 c-50 44 -66 48 -120 32z"/>
<path d="M391 1603 c-24 -16 -28 -43 -6 -43 24 0 18 -27 -7 -34 -34 -9 -38 -8
-38 9 0 8 5 15 10 15 6 0 10 9 10 20 0 25 -18 26 -27 3 -4 -10 -11 -21 -17
-25 -16 -10 34 -46 75 -53 40 -7 106 2 114 15 4 7 -23 90 -29 90 0 0 -15 4
-33 9 -23 7 -37 5 -52 -6z"/>
<path d="M2607 1609 c-25 -15 -47 -63 -47 -103 0 -34 0 -35 38 -29 20 3 43 12
50 21 18 24 15 53 -8 59 -21 6 -27 28 -10 38 12 7 13 25 3 25 -5 0 -16 -5 -26
-11z"/>
<path d="M612 1578 c-17 -17 -15 -39 6 -54 25 -19 32 -17 32 9 0 35 -22 61
-38 45z"/>
<path d="M553 1540 c2 -24 21 -21 25 3 2 10 -3 17 -12 17 -9 0 -14 -8 -13 -20z"/>
<path d="M997 1542 c-21 -23 -22 -42 -2 -42 21 0 19 -30 -2 -31 -12 0 -13 -2
-5 -6 7 -3 19 0 27 7 8 6 19 9 24 6 11 -7 -1 41 -16 69 -8 14 -11 14 -26 -3z"/>
<path d="M945 1520 c-7 -12 2 -30 16 -30 5 0 9 9 9 20 0 21 -15 27 -25 10z"/>
<path d="M1237 1474 c-43 -33 -47 -41 -47 -79 0 -28 6 -47 18 -58 34 -31 89
-15 62 18 -7 9 -8 15 0 20 17 11 30 -5 24 -30 -5 -20 -2 -24 14 -22 12 0 18 5
16 9 -3 4 -1 8 4 8 16 0 21 -51 6 -57 -8 -3 -14 -18 -14 -34 0 -19 -5 -29 -15
-29 -8 0 -15 -7 -15 -15 0 -8 -6 -15 -14 -15 -8 0 -21 -3 -29 -6 -8 -3 -27 6
-42 20 -34 31 -35 31 -35 6 0 -11 6 -19 13 -17 6 1 12 -4 12 -12 0 -17 -43
-25 -60 -11 -7 6 -25 8 -39 4 -20 -5 -26 -2 -26 10 0 9 5 16 10 16 6 0 10 9
10 20 0 11 -5 20 -11 20 -6 0 -13 -9 -16 -20 -7 -27 -29 -25 -37 3 -8 30 -7
39 2 33 10 -6 15 50 7 75 -5 15 -10 17 -26 9 -22 -13 -26 -50 -4 -50 17 0 21
-26 4 -32 -6 -2 4 -34 25 -78 30 -63 46 -83 100 -125 231 -179 268 -206 276
-199 4 5 47 87 95 182 59 119 84 179 80 192 -7 22 -105 233 -111 239 -5 5
-156 41 -175 41 -9 0 -37 -16 -62 -36z m83 -108 c0 -8 -4 -17 -8 -20 -4 -2 -8
4 -8 15 0 10 4 19 8 19 4 0 8 -6 8 -14z"/>
<path d="M328 1466 c-10 -7 -18 -21 -18 -30 0 -19 26 -22 33 -3 3 9 8 9 18 -2
11 -10 11 -15 2 -18 -7 -3 -13 -12 -13 -20 0 -13 3 -13 16 -2 16 13 48 69 42
74 -13 12 -66 13 -80 1z"/>
<path d="M458 1463 c-21 -3 -30 -12 -34 -31 -3 -15 -7 -32 -9 -38 -2 -7 4 -10
17 -6 16 4 20 1 16 -9 -4 -10 1 -15 15 -17 18 -1 19 1 7 9 -13 9 -13 10 0 7
17 -5 19 -50 2 -56 -6 -2 -15 3 -18 12 -8 20 -34 21 -34 1 0 -8 7 -15 15 -15
21 0 19 -30 -2 -31 -10 0 -13 -3 -7 -5 26 -11 96 16 148 57 l56 44 -47 42
c-48 42 -61 46 -125 36z"/>
<path d="M940 1455 c0 -16 16 -20 24 -6 3 5 -1 11 -9 15 -9 3 -15 0 -15 -9z"/>
<path d="M2579 1450 c-29 -8 -109 -59 -109 -69 0 -4 18 -24 39 -45 36 -35 43
-38 78 -33 21 4 44 14 51 24 18 25 11 59 -10 55 -11 -2 -18 3 -18 13 0 8 7 15
15 15 8 0 15 7 15 15 0 8 4 15 9 15 16 0 24 -21 13 -32 -5 -5 -7 -18 -5 -29 4
-14 9 -16 23 -9 11 6 16 17 13 29 -3 13 1 21 14 24 14 3 9 8 -19 20 -40 18
-68 20 -109 7z"/>
<path d="M270 1436 c0 -8 7 -16 15 -20 10 -4 15 1 15 14 0 11 -7 20 -15 20 -8
0 -15 -6 -15 -14z"/>
<path d="M957 1422 c-21 -23 -22 -42 -1 -42 12 0 15 -6 10 -25 -7 -29 -4 -30
28 -10 22 15 54 71 45 79 -2 2 -18 7 -35 10 -23 5 -34 2 -47 -12z"/>
<path d="M1097 1423 c-51 -8 -75 -103 -26 -103 10 0 19 5 19 11 0 23 25 1 27
-24 2 -30 -11 -35 -34 -12 -8 8 -19 13 -24 10 -15 -10 -10 -25 9 -25 13 0 14
-2 4 -9 -11 -7 -10 -10 3 -15 24 -9 72 43 80 87 9 44 -1 88 -18 86 -6 -1 -24
-4 -40 -6z"/>
<path d="M315 1380 c-19 -8 -19 -9 3 -9 12 -1 22 4 22 9 0 6 -1 10 -2 9 -2 0
-12 -4 -23 -9z"/>
<path d="M370 1375 c-11 -13 -10 -14 6 -9 18 7 18 6 2 -12 -16 -19 -16 -20 2
-32 11 -7 22 -12 25 -12 9 0 5 49 -5 55 -6 4 -8 11 -5 16 10 15 -12 10 -25 -6z"/>
<path d="M300 1343 c-13 -15 -12 -16 2 -10 9 3 19 1 22 -6 3 -9 8 -8 15 3 6 8
11 18 11 23 0 13 -35 6 -50 -10z"/>
<path d="M618 1312 c-44 -34 -47 -40 -48 -83 0 -64 44 -101 78 -67 9 9 12 9
12 0 0 -7 7 -12 15 -12 8 0 15 5 15 10 0 6 6 10 13 10 9 0 14 -12 15 -30 0
-20 -4 -30 -14 -30 -8 0 -14 7 -14 15 0 10 -10 15 -29 15 -37 0 -45 -11 -26
-36 12 -16 16 -17 24 -5 13 20 39 7 37 -20 -1 -25 -26 -39 -26 -15 0 9 -8 16
-20 16 -11 0 -20 -7 -20 -15 0 -8 7 -15 15 -15 8 0 15 -7 15 -15 0 -8 -5 -15
-11 -15 -5 0 -7 6 -3 13 4 6 -1 4 -12 -5 -19 -16 -21 -16 -48 7 -33 29 -46 31
-46 10 0 -8 6 -15 14 -15 8 0 16 -5 18 -10 2 -6 30 -17 62 -24 57 -14 64 -13
197 21 l137 36 -55 116 c-30 64 -57 121 -59 127 -3 6 -41 19 -85 28 -45 10
-86 19 -93 21 -6 2 -32 -12 -58 -33z m79 -118 c4 -13 -25 -23 -44 -17 -7 3
-13 11 -13 19 0 18 51 16 57 -2z"/>
<path d="M195 1320 c-10 -16 24 -63 40 -56 8 3 17 1 20 -4 9 -15 41 -12 56 6
16 20 -1 50 -26 46 -10 -2 -14 1 -10 7 3 6 2 11 -4 11 -5 0 -9 -9 -8 -19 0
-11 5 -17 9 -15 4 3 8 0 8 -7 0 -7 -9 -9 -22 -5 -13 3 -26 6 -30 6 -5 0 -8 6
-8 14 0 19 -17 29 -25 16z"/>
<path d="M374 1312 c3 -5 0 -13 -6 -15 -8 -3 -6 -6 5 -6 19 -1 23 14 5 25 -6
4 -8 3 -4 -4z"/>
<path d="M1162 1296 c-9 -21 -8 -29 8 -48 19 -21 21 -22 31 -5 12 21 29 13 29
-14 0 -11 5 -17 10 -14 18 11 11 43 -16 74 -31 37 -47 39 -62 7z"/>
<path d="M1253 1303 c-9 -3 -10 -10 -3 -24 11 -20 40 -26 40 -9 0 6 7 10 15
10 9 0 12 6 9 15 -6 15 -36 19 -61 8z"/>
<path d="M340 1248 c0 -39 12 -68 26 -68 7 0 23 17 33 39 l20 39 -31 6 c-45 9
-48 8 -48 -16z"/>
<path d="M464 1253 c-22 -4 -44 -41 -44 -74 0 -22 32 -39 38 -21 8 25 32 12
32 -18 0 -20 -5 -30 -15 -30 -8 0 -15 7 -15 15 0 8 -7 15 -15 15 -8 0 -15 -7
-15 -15 0 -8 7 -15 15 -15 8 0 15 -7 15 -17 0 -14 2 -14 21 3 33 30 49 69 49
119 0 48 -4 50 -66 38z"/>
<path d="M1112 1248 c-16 -16 -15 -38 2 -38 7 0 16 -9 19 -21 8 -29 33 -18 28
12 -4 29 -19 59 -29 59 -5 0 -13 -5 -20 -12z"/>
<path d="M1260 1235 c0 -8 7 -15 15 -15 8 0 15 7 15 15 0 8 -7 15 -15 15 -8 0
-15 -7 -15 -15z"/>
<path d="M288 1233 c7 -3 16 -2 19 1 4 3 -2 6 -13 5 -11 0 -14 -3 -6 -6z"/>
<path d="M222 1204 c-25 -17 -29 -44 -7 -44 8 0 15 -7 15 -16 0 -10 -6 -14
-15 -10 -8 3 -15 1 -15 -4 0 -6 -7 -10 -15 -10 -8 0 -15 7 -15 15 0 8 5 15 10
15 6 0 10 9 10 20 0 11 -7 20 -15 20 -8 0 -15 -9 -15 -20 0 -11 -5 -20 -12
-20 -6 0 -1 -11 11 -24 28 -30 82 -40 138 -28 30 7 44 6 47 -2 3 -6 3 0 0 14
-9 35 -24 49 -24 21 0 -14 -5 -21 -12 -18 -7 2 -12 12 -12 21 1 9 -2 16 -7 16
-5 0 -7 14 -4 31 5 27 3 30 -11 25 -10 -4 -20 -2 -24 4 -4 6 -14 4 -28 -6z"/>
<path d="M382 1168 c-17 -17 -15 -32 6 -51 25 -23 32 -21 32 6 0 35 -22 61
-38 45z"/>
<path d="M540 1135 c-13 -35 -13 -41 6 -60 15 -14 17 -14 29 1 14 20 37 11 28
-11 -3 -8 0 -15 6 -15 31 0 0 79 -40 100 -16 9 -21 7 -29 -15z"/>
<path d="M487 1083 c-12 -12 -7 -36 11 -49 24 -19 32 -17 32 5 0 41 -23 65
-43 44z"/>
<path d="M158 1070 c-22 -13 -24 -50 -3 -50 23 0 18 -26 -7 -38 -22 -10 -22
-11 -3 -11 11 -1 31 6 43 15 22 15 57 72 50 80 -11 10 -65 13 -80 4z"/>
<path d="M288 1063 c-30 -5 -54 -49 -43 -82 7 -22 29 -28 40 -10 11 17 28 5
31 -24 2 -20 -2 -27 -14 -27 -13 0 -14 2 -4 9 10 6 8 10 -10 14 -34 10 -38 9
-38 -8 0 -8 7 -15 15 -15 8 0 15 -7 15 -15 0 -8 -7 -15 -17 -15 -9 0 -14 -3
-10 -6 14 -15 103 20 154 59 l54 42 -48 42 c-48 42 -60 46 -125 36z"/>
<path d="M455 1060 c3 -5 8 -10 11 -10 2 0 4 5 4 10 0 6 -5 10 -11 10 -5 0 -7
-4 -4 -10z"/>
<path d="M202 978 c-7 -7 -13 -21 -13 -32 -1 -17 -2 -18 -6 -3 -2 9 -13 17
-23 17 -13 0 -17 -5 -13 -19 4 -14 12 -17 39 -14 36 4 45 -10 17 -26 -12 -7
-13 -11 -5 -11 32 0 51 44 36 84 -7 19 -16 20 -32 4z"/>
<path d="M448 912 c-44 -34 -47 -40 -48 -83 0 -48 20 -79 52 -79 21 0 42 26
28 35 -20 12 -10 26 17 23 33 -4 41 -24 13 -31 -23 -6 -27 -27 -5 -27 8 0 15
5 15 10 0 6 7 10 15 10 20 0 20 -47 0 -67 -29 -29 -5 -27 31 3 24 20 47 56 74
115 l38 86 -77 17 c-42 10 -83 19 -91 21 -8 2 -36 -13 -62 -33z"/>
<path d="M163 858 c-6 -7 -12 -23 -15 -34 -4 -17 -2 -20 13 -17 11 3 19 0 19
-7 0 -6 -9 -14 -20 -17 -25 -7 -26 -23 -2 -23 24 1 57 29 76 66 15 31 15 32
-7 38 -34 9 -54 7 -64 -6z"/>
<path d="M293 853 c-32 -6 -49 -55 -32 -95 8 -18 13 -36 11 -40 -1 -5 2 -8 8
-8 6 0 10 -7 10 -17 0 -14 2 -14 21 3 33 30 49 69 49 119 0 48 -4 50 -67 38z
m27 -103 c0 -11 0 -23 0 -27 0 -17 -23 -7 -39 17 -9 14 -11 21 -3 16 6 -4 12
-2 12 3 0 6 7 11 15 11 8 0 15 -9 15 -20z"/>
<path d="M208 766 c-37 -28 -9 -62 31 -37 10 7 11 13 2 30 -14 25 -11 24 -33
7z"/>
<path d="M369 734 c-17 -48 9 -82 39 -52 19 19 39 -6 22 -27 -11 -13 -10 -14
4 -9 24 9 19 48 -10 83 -32 38 -42 39 -55 5z"/>
<path d="M450 734 c0 -13 22 -44 31 -44 14 0 39 26 39 39 0 6 -16 11 -35 11
-19 0 -35 -3 -35 -6z"/>
<path d="M325 686 c-23 -16 -14 -46 15 -46 21 0 27 24 12 47 -7 10 -12 10 -27
-1z"/>
<path d="M582 652 c-38 -33 -42 -41 -42 -82 1 -54 30 -83 68 -69 22 8 31 29
12 29 -5 0 -10 7 -10 15 0 11 8 15 28 12 18 -3 27 -10 26 -21 -1 -9 4 -16 12
-16 23 0 16 60 -13 117 -16 29 -30 53 -33 53 -3 0 -24 -17 -48 -38z"/>
<path d="M460 665 c0 -8 9 -15 20 -15 11 0 20 7 20 15 0 8 -9 15 -20 15 -11 0
-20 -7 -20 -15z"/>
<path d="M370 646 c0 -10 9 -16 21 -16 24 0 21 23 -4 28 -10 2 -17 -3 -17 -12z"/>
<path d="M313 607 c-26 -11 -31 -47 -8 -47 8 0 15 -7 15 -15 0 -8 -9 -15 -20
-15 -11 0 -20 -4 -20 -10 0 -5 10 -10 23 -10 24 0 56 28 76 68 11 21 10 22
-13 16 -17 -4 -25 -1 -28 9 -2 11 -8 12 -25 4z"/>
<path d="M448 603 c-51 -8 -79 -81 -39 -102 14 -8 20 -7 25 4 9 23 23 18 29
-11 5 -30 -20 -46 -35 -21 -13 23 -28 21 -28 -4 0 -11 5 -17 10 -14 6 3 13 -1
16 -9 8 -22 39 -4 59 34 19 36 21 131 3 129 -7 -1 -25 -4 -40 -6z"/>
<path d="M730 539 c0 -46 19 -68 57 -69 27 0 41 19 22 31 -11 6 -11 11 -1 21
19 19 37 -4 23 -31 -13 -24 -2 -28 28 -9 39 24 -14 80 -87 93 l-42 7 0 -43z
m124 -39 c-6 -6 -10 -3 -10 10 0 13 4 16 10 10 7 -7 7 -13 0 -20z"/>
<path d="M642 525 c-9 -20 -9 -25 2 -25 8 0 14 11 14 25 0 14 -1 25 -3 25 -1
0 -7 -11 -13 -25z"/>
<path d="M892 542 c-15 -10 -6 -42 12 -42 6 0 20 7 31 16 17 13 18 16 5 24
-18 12 -31 12 -48 2z"/>
<path d="M510 480 c-9 -21 -9 -34 0 -49 11 -21 40 -29 40 -11 0 17 28 11 33
-7 3 -13 5 -12 6 5 1 31 -13 56 -43 75 -23 16 -24 15 -36 -13z"/>
<path d="M603 483 c-22 -8 4 -40 36 -45 17 -2 28 -1 25 3 -2 4 2 10 8 13 7 3
2 3 -12 0 -18 -4 -21 -3 -11 4 28 20 -10 40 -46 25z"/>
<path d="M702 445 c-9 -19 -9 -32 -2 -46 11 -20 40 -27 40 -9 0 6 7 10 15 10
9 0 15 -6 13 -13 -2 -7 2 -14 7 -15 19 -6 15 24 -8 58 -29 44 -50 48 -65 15z"/>
<path d="M798 453 c-14 -4 -16 -8 -8 -24 13 -23 26 -24 46 -4 26 26 6 40 -38
28z"/>
<path d="M462 428 c-14 -14 -16 -38 -2 -38 5 0 16 -12 23 -26 l14 -27 1 34 c2
61 -11 82 -36 57z"/>
<path d="M600 416 c0 -10 9 -16 21 -16 24 0 21 23 -4 28 -10 2 -17 -3 -17 -12z"/>
</g>
</svg>
